{
classes = (
{
code = "u10C80 u10C81 u10C82 u10C83 u10C84 u10C85 u10C86 u10C87 u10C88 u10C89 u10C8A u10C8B u10C8C u10C8D u10C8E u10C8F u10C90 u10C91 u10C92 u10C93 u10C94 u10C95 u10C96 u10C97 u10C98 u10C99 u10C9A u10C9B u10C9C u10C9D u10C9E u10C9F u10CA0 u10CA1 u10CA2 u10CA3 u10CA4 u10CA5 u10CA6 u10CA7 u10CA8 u10CA9 u10CAA u10CAB u10CAC u10CAD u10CAE u10CAF u10CB0 u10CB1 u10CB2 u10CC0 u10CC1 u10CC2 u10CC3 u10CC4 u10CC5 u10CC6 u10CC7 u10CC8 u10CC9 u10CCA u10CCB u10CCC u10CCD u10CCE u10CCF u10CD0 u10CD1 u10CD2 u10CD3 u10CD4 u10CD5 u10CD6 u10CD7 u10CD8 u10CD9 u10CDA u10CDB u10CDC u10CDD u10CDE u10CDF u10CE0 u10CE1 u10CE2 u10CE3 u10CE4 u10CE5 u10CE6 u10CE7 u10CE8 u10CE9 u10CEA u10CEB u10CEC u10CED u10CEE u10CEF u10CF0 u10CF1 u10CF2";
name = ltrm;
},
{

glyphs = (
{
glyphname = .notdef;
layers = (
{
layerId = "2D854B59-3A96-4021-89E9-F3E1522D96CD";
paths = (
{
closed = 1;
nodes = (
"94 0 LINE",
"94 714 LINE",
"505 714 LINE",
"505 0 LINE"
);
},
{
closed = 1;
nodes = (
"145 51 LINE",
"454 51 LINE",
"454 663 LINE",
"145 663 LINE"
);
}
);
width = 600;
}
);
},
{
glyphname = u10C80;
layers = (
{
layerId = "2D854B59-3A96-4021-89E9-F3E1522D96CD";
paths = (
{
closed = 1;
nodes = (
"310 -2 LINE",
"310 444 LINE",
"10 474 LINE",
"10 573 LINE",
"303 797 LINE",
"400 797 LINE",
"400 -2 LINE"
);
},
{
closed = 1;
nodes = (
"310 522 LINE",
"310 707 LINE",
"92 540 LINE"
);
}
);
width = 529;
}
);
unicode = 10C80;
},
{
glyphname = u10C81;
layers = (
{
layerId = "2D854B59-3A96-4021-89E9-F3E1522D96CD";
paths = (
{
closed = 1;
nodes = (
"310 -2 LINE",
"310 235 LINE",
"23 466 LINE",
"23 537 LINE",
"307 797 LINE",
"400 797 LINE",
"400 -2 LINE"
);
},
{
closed = 1;
nodes = (
"310 343 LINE",
"310 698 LINE",
"107 502 LINE"
);
}
);
width = 529;
}
);
unicode = 10C81;
},
{
glyphname = u10C82;
layers = (
{
layerId = "2D854B59-3A96-4021-89E9-F3E1522D96CD";
paths = (
{
closed = 1;
nodes = (
"4 -4 LINE",
"286 417 LINE",
"22 802 LINE",
"132 802 LINE",
"346 479 LINE",
"563 802 LINE",
"667 802 LINE",
"404 418 LINE",
"687 -4 LINE",
"575 -4 LINE",
"343 352 LINE",
"108 -4 LINE"
);
}
);
width = 691;
}
);
unicode = 10C82;
},
{
glyphname = u10C83;
layers = (
{
layerId = "2D854B59-3A96-4021-89E9-F3E1522D96CD";
paths = (
{
closed = 1;
nodes = (
"464 -4 LINE",
"429 22 OFFCURVE",
"367 75 OFFCURVE",
"341 102 QCURVE",
"251 -3 LINE",
"55 80 LINE",
"85 151 LINE",
"226 87 LINE",
"288 165 LINE",
"251 216 OFFCURVE",
"211 330 OFFCURVE",
"211 396 QCURVE SMOOTH",
"211 463 OFFCURVE",
"251 577 OFFCURVE",
"288 629 QCURVE",
"226 706 LINE",
"85 642 LINE",
"55 714 LINE",
"251 796 LINE",
"341 691 LINE",
"367 719 OFFCURVE",
"429 772 OFFCURVE",
"463 797 QCURVE",
"557 797 LINE",
"592 772 OFFCURVE",
"652 721 OFFCURVE",
"678 693 QCURVE",
"765 796 LINE",
"963 714 LINE",
"931 642 LINE",
"791 706 LINE",
"731 631 LINE",
"769 579 OFFCURVE",
"809 463 OFFCURVE",
"809 396 QCURVE SMOOTH",
"809 329 OFFCURVE",
"769 214 OFFCURVE",
"731 162 QCURVE",
"791 87 LINE",
"931 151 LINE",
"963 80 LINE",
"765 -3 LINE",
"678 100 LINE",
"652 73 OFFCURVE",
"592 21 OFFCURVE",
"557 -4 QCURVE"
);
},
{
closed = 1;
nodes = (
"512 64 LINE",
"581 121 OFFCURVE",
"671 221 OFFCURVE",
"716 330 OFFCURVE",
"716 396 QCURVE SMOOTH",
"716 463 OFFCURVE",
"671 572 OFFCURVE",
"581 673 OFFCURVE",
"512 730 QCURVE",
"508 730 LINE",
"440 673 OFFCURVE",
"349 572 OFFCURVE",
"304 463 OFFCURVE",
"304 396 QCURVE SMOOTH",
"304 330 OFFCURVE",
"349 221 OFFCURVE",
"440 121 OFFCURVE",
"508 64 QCURVE"
);
}
);
width = 1018;
}
);
unicode = 10C83;
},
{
glyphname = u10C84;
layers = (
{
layerId = "2D854B59-3A96-4021-89E9-F3E1522D96CD";
paths = (
{
closed = 1;
nodes = (
"265 -5 LINE",
"265 682 LINE",
"83 527 LINE",
"24 588 LINE",
"273 799 LINE",
"347 799 LINE",
"596 588 LINE",
"537 527 LINE",
"355 682 LINE",
"355 -5 LINE"
);
}
);
width = 620;
}
);
unicode = 10C84;
},
{
glyphname = u10C85;
layers = (
{
layerId = "2D854B59-3A96-4021-89E9-F3E1522D96CD";
paths = (
{
closed = 1;
nodes = (
"276 0 LINE",
"27 211 LINE",
"86 271 LINE",
"268 117 LINE",
"268 685 LINE",
"86 531 LINE",
"34 591 LINE",
"276 802 LINE",
"350 802 LINE",
"592 591 LINE",
"540 531 LINE",
"358 685 LINE",
"358 117 LINE",
"540 271 LINE",
"599 211 LINE",
"350 0 LINE"
);
}
);
width = 620;
}
);
unicode = 10C85;
},
{
glyphname = u10C86;
layers = (
{
layerId = "2D854B59-3A96-4021-89E9-F3E1522D96CD";
paths = (
{
closed = 1;
nodes = (
"124 -5 LINE",
"124 799 LINE",
"214 799 LINE",
"214 555 LINE",
"621 799 LINE",
"708 799 LINE",
"708 -5 LINE",
"618 -5 LINE",
"618 240 LINE",
"211 -5 LINE"
);
},
{
closed = 1;
nodes = (
"214 94 LINE",
"618 332 LINE",
"618 704 LINE",
"214 461 LINE"
);
}
);
width = 832;
}
);
unicode = 10C86;
},
{
glyphname = u10C87;
layers = (
{
layerId = "2D854B59-3A96-4021-89E9-F3E1522D96CD";
paths = (
{
closed = 1;
nodes = (
"265 -5 LINE",
"265 348 LINE",
"96 260 LINE",
"57 329 LINE",
"265 434 LINE",
"265 802 LINE",
"361 802 LINE",
"361 482 LINE",
"530 572 LINE",
"569 502 LINE",
"361 394 LINE",
"361 -5 LINE"
);
}
);
width = 627;
}
);
unicode = 10C87;
},
{
glyphname = u10C88;
layers = (
{
layerId = "2D854B59-3A96-4021-89E9-F3E1522D96CD";
paths = (
{
closed = 1;
nodes = (
"4 -4 LINE",
"245 357 LINE",
"54 302 LINE",
"30 366 LINE",
"274 435 LINE",
"22 804 LINE",
"132 804 LINE",
"346 480 LINE",
"563 804 LINE",
"667 804 LINE",
"448 484 LINE",
"636 538 LINE",
"652 471 LINE",
"414 404 LINE",
"687 -4 LINE",
"575 -4 LINE",
"343 353 LINE",
"108 -4 LINE"
);
}
);
width = 691;
}
);
unicode = 10C88;
},
{
glyphname = u10C89;
layers = (
{
layerId = "2D854B59-3A96-4021-89E9-F3E1522D96CD";
paths = (
{
closed = 1;
nodes = (
"86 63 LINE",
"129 87 OFFCURVE",
"200 132 OFFCURVE",
"228 153 QCURVE",
"98 253 LINE",
"153 305 LINE",
"287 202 LINE",
"334 247 OFFCURVE",
"374 342 OFFCURVE",
"374 399 QCURVE SMOOTH",
"374 456 OFFCURVE",
"333 550 OFFCURVE",
"283 597 QCURVE",
"153 496 LINE",
"98 550 LINE",
"224 646 LINE",
"195 667 OFFCURVE",
"124 713 OFFCURVE",
"81 738 QCURVE",
"142 798 LINE",
"187 772 OFFCURVE",
"262 723 OFFCURVE",
"293 699 QCURVE",
"418 795 LINE",
"467 739 LINE",
"352 650 LINE",
"415 591 OFFCURVE",
"468 471 OFFCURVE",
"468 399 QCURVE SMOOTH",
"468 327 OFFCURVE",
"416 208 OFFCURVE",
"354 150 QCURVE",
"467 63 LINE",
"418 7 LINE",
"295 101 LINE",
"263 77 OFFCURVE",
"184 27 OFFCURVE",
"137 0 QCURVE"
);
}
);
width = 563;
}
);
unicode = 10C89;
},
{
glyphname = u10C8A;
layers = (
{
layerId = "2D854B59-3A96-4021-89E9-F3E1522D96CD";
paths = (
{
closed = 1;
nodes = (
"98 56 LINE",
"136 78 OFFCURVE",
"200 117 OFFCURVE",
"227 136 QCURVE",
"160 197 OFFCURVE",
"102 321 OFFCURVE",
"102 395 QCURVE SMOOTH",
"102 469 OFFCURVE",
"159 593 OFFCURVE",
"226 653 QCURVE",
"198 674 OFFCURVE",
"132 716 OFFCURVE",
"93 739 QCURVE",
"154 799 LINE",
"236 751 OFFCURVE",
"293 709 QCURVE",
"350 751 OFFCURVE",
"432 799 QCURVE",
"493 739 LINE",
"454 717 OFFCURVE",
"388 674 OFFCURVE",
"361 654 QCURVE",
"427 593 OFFCURVE",
"484 470 OFFCURVE",
"484 395 QCURVE SMOOTH",
"484 321 OFFCURVE",
"427 197 OFFCURVE",
"359 136 QCURVE",
"386 117 OFFCURVE",
"451 77 OFFCURVE",
"488 56 QCURVE",
"436 -8 LINE",
"395 16 OFFCURVE",
"323 61 OFFCURVE",
"293 83 QCURVE",
"263 61 OFFCURVE",
"191 16 OFFCURVE",
"150 -8 QCURVE"
);
},
{
closed = 1;
nodes = (
"345 237 OFFCURVE",
"390 336 OFFCURVE",
"390 395 QCURVE SMOOTH",
"390 454 OFFCURVE",
"346 551 OFFCURVE",
"293 599 QCURVE",
"240 550 OFFCURVE",
"196 454 OFFCURVE",
"196 395 QCURVE SMOOTH",
"196 336 OFFCURVE",
"241 237 OFFCURVE",
"293 189 QCURVE"
);
}
);
width = 586;
}
);
unicode = 10C8A;
},
{
glyphname = u10C8B;
layers = (
{
layerId = "2D854B59-3A96-4021-89E9-F3E1522D96CD";
paths = (
{
closed = 1;
nodes = (
"280 -9 LINE",
"88 137 LINE",
"174 181 OFFCURVE",
"283 261 OFFCURVE",
"336 344 OFFCURVE",
"336 395 QCURVE SMOOTH",
"336 446 OFFCURVE",
"284 529 OFFCURVE",
"174 609 OFFCURVE",
"88 654 QCURVE",
"280 799 LINE",
"338 740 LINE",
"231 662 LINE",
"337 598 OFFCURVE",
"430 474 OFFCURVE",
"430 395 QCURVE SMOOTH",
"430 318 OFFCURVE",
"337 193 OFFCURVE",
"231 129 QCURVE",
"338 51 LINE"
);
}
);
width = 512;
}
);
unicode = 10C8B;
},
{
glyphname = u10C8C;
layers = (
{
layerId = "2D854B59-3A96-4021-89E9-F3E1522D96CD";
paths = (
{
closed = 1;
nodes = (
"338 -5 LINE",
"258 54 OFFCURVE",
"143 174 OFFCURVE",
"81 312 OFFCURVE",
"81 396 QCURVE SMOOTH",
"81 480 OFFCURVE",
"143 618 OFFCURVE",
"258 739 OFFCURVE",
"337 797 QCURVE",
"431 797 LINE",
"511 739 OFFCURVE",
"625 618 OFFCURVE",
"687 480 OFFCURVE",
"687 396 QCURVE SMOOTH",
"687 312 OFFCURVE",
"625 174 OFFCURVE",
"511 54 OFFCURVE",
"431 -5 QCURVE"
);
},
{
closed = 1;
nodes = (
"386 446 LINE",
"522 600 LINE",
"497 632 OFFCURVE",
"430 695 OFFCURVE",
"386 730 QCURVE",
"382 730 LINE",
"296 662 OFFCURVE",
"247 601 QCURVE"
);
},
{
closed = 1;
nodes = (
"339 394 LINE",
"209 543 LINE",
"174 477 OFFCURVE",
"174 396 QCURVE SMOOTH",
"174 354 OFFCURVE",
"192 281 OFFCURVE",
"210 247 QCURVE"
);
},
{
closed = 1;
nodes = (
"560 250 LINE",
"594 315 OFFCURVE",
"594 396 QCURVE SMOOTH",
"594 476 OFFCURVE",
"560 540 QCURVE",
"432 394 LINE"
);
},
{
closed = 1;
nodes = (
"386 63 LINE",
"428 96 OFFCURVE",
"494 158 OFFCURVE",
"519 190 QCURVE",
"386 341 LINE",
"251 187 LINE",
"276 157 OFFCURVE",
"341 96 OFFCURVE",
"382 63 QCURVE"
);
}
);
width = 769;
}
);
unicode = 10C8C;
},
{
glyphname = u10C8D;
layers = (
{
layerId = "2D854B59-3A96-4021-89E9-F3E1522D96CD";
paths = (
{
closed = 1;
nodes = (
"21 -5 LINE",
"360 802 LINE",
"447 802 LINE",
"780 -5 LINE",
"681 -5 LINE",
"524 379 LINE",
"380 -5 LINE",
"286 -5 LINE",
"480 487 LINE",
"468 516 LINE SMOOTH",
"447 567 OFFCURVE",
"414 656 OFFCURVE",
"403 696 QCURVE",
"399 696 LINE",
"389 656 OFFCURVE",
"354 565 OFFCURVE",
"333 514 QCURVE SMOOTH",
"121 -5 LINE"
);
}
);
width = 801;
}
);
unicode = 10C8D;
},
{
glyphname = u10C8E;
layers = (
{
layerId = "2D854B59-3A96-4021-89E9-F3E1522D96CD";
paths = (
{
closed = 1;
nodes = (
"265 -5 LINE",
"265 199 LINE",
"96 112 LINE",
"57 181 LINE",
"265 288 LINE",
"265 442 LINE",
"96 356 LINE",
"57 424 LINE",
"265 531 LINE",
"265 799 LINE",
"361 799 LINE",
"361 580 LINE",
"530 666 LINE",
"569 596 LINE",
"361 490 LINE",
"361 337 LINE",
"530 423 LINE",
"569 353 LINE",
"361 247 LINE",
"361 -5 LINE"
);
}
);
width = 624;
}
);
unicode = 10C8E;
},
{
glyphname = u10C8F;
layers = (
{
layerId = "2D854B59-3A96-4021-89E9-F3E1522D96CD";
paths = (
{
closed = 1;
nodes = (
"64 -2 LINE",
"295 200 LINE",
"51 415 LINE",
"295 614 LINE",
"64 802 LINE",
"184 802 LINE",
"354 662 LINE",
"523 802 LINE",
"645 802 LINE",
"414 614 LINE",
"659 415 LINE",
"414 200 LINE",
"645 -2 LINE",
"523 -2 LINE",
"354 149 LINE",
"186 -2 LINE"
);
},
{
closed = 1;
nodes = (
"354 255 LINE",
"534 416 LINE",
"354 563 LINE",
"174 416 LINE"
);
}
);
width = 710;
}
);
unicode = 10C8F;
},
{
glyphname = u10C90;
layers = (
{
layerId = "2D854B59-3A96-4021-89E9-F3E1522D96CD";
paths = (
{
closed = 1;
nodes = (
"265 0 LINE",
"265 446 LINE",
"96 360 LINE",
"57 428 LINE",
"265 535 LINE",
"265 802 LINE",
"361 802 LINE",
"361 584 LINE",
"530 670 LINE",
"569 600 LINE",
"361 494 LINE",
"361 0 LINE"
);
}
);
width = 627;
}
);
unicode = 10C90;
},
{
glyphname = u10C91;
layers = (
{
layerId = "2D854B59-3A96-4021-89E9-F3E1522D96CD";
paths = (
{
closed = 1;
nodes = (
"278 -4 LINE",
"278 654 LINE",
"96 569 LINE",
"57 632 LINE",
"530 854 LINE",
"569 790 LINE",
"374 699 LINE",
"374 -4 LINE"
);
}
);
width = 627;
}
);
unicode = 10C91;
},
{
glyphname = u10C92;
layers = (
{
layerId = "2D854B59-3A96-4021-89E9-F3E1522D96CD";
paths = (
{
closed = 1;
nodes = (
"324 -2 LINE",
"324 680 LINE",
"86 458 LINE",
"31 515 LINE",
"337 799 LINE",
"413 799 LINE",
"413 -2 LINE"
);
}
);
width = 547;
}
);
unicode = 10C92;
},
{
glyphname = u10C93;
layers = (
{
layerId = "2D854B59-3A96-4021-89E9-F3E1522D96CD";
paths = (
{
closed = 1;
nodes = (
"297 0 LINE",
"56 405 LINE",
"297 799 LINE",
"389 799 LINE",
"629 405 LINE",
"389 0 LINE"
);
},
{
closed = 1;
nodes = (
"343 81 LINE",
"528 405 LINE",
"343 719 LINE",
"156 405 LINE"
);
}
);
width = 684;
}
);
unicode = 10C93;
},
{
glyphname = u10C94;
layers = (
{
layerId = "2D854B59-3A96-4021-89E9-F3E1522D96CD";
paths = (
{
closed = 1;
nodes = (
"265 2 LINE",
"265 689 LINE",
"83 534 LINE",
"24 595 LINE",
"273 806 LINE",
"355 806 LINE",
"355 118 LINE",
"537 274 LINE",
"596 213 LINE",
"347 2 LINE"
);
}
);
width = 613;
}
);
unicode = 10C94;
},
{
glyphname = u10C95;
layers = (
{
layerId = "2D854B59-3A96-4021-89E9-F3E1522D96CD";
paths = (
{
closed = 1;
nodes = (
"240 -2 LINE",
"32 87 LINE",
"66 150 LINE",
"199 89 LINE",
"408 407 LINE",
"205 715 LINE",
"72 655 LINE",
"38 717 LINE",
"246 808 LINE",
"453 482 LINE",
"661 808 LINE",
"868 717 LINE",
"835 655 LINE",
"701 715 LINE",
"499 407 LINE",
"707 89 LINE",
"841 150 LINE",
"874 87 LINE",
"667 -2 LINE",
"453 333 LINE"
);
}
);
width = 907;
}
);
unicode = 10C95;
},
{
glyphname = u10C96;
layers = (
{
layerId = "2D854B59-3A96-4021-89E9-F3E1522D96CD";
paths = (
{
closed = 1;
nodes = (
"18 0 LINE",
"360 806 LINE",
"446 806 LINE",
"784 0 LINE",
"685 0 LINE",
"613 175 LINE",
"541 0 LINE",
"453 0 LINE",
"569 280 LINE",
"509 426 LINE",
"332 0 LINE",
"242 0 LINE",
"463 536 LINE",
"445 583 OFFCURVE",
"415 663 OFFCURVE",
"404 700 QCURVE",
"400 700 LINE",
"388 662 OFFCURVE",
"353 572 OFFCURVE",
"332 520 QCURVE SMOOTH",
"118 0 LINE"
);
}
);
width = 801;
}
);
unicode = 10C96;
},
{
glyphname = u10C97;
layers = (
{
layerId = "2D854B59-3A96-4021-89E9-F3E1522D96CD";
paths = (
{
closed = 1;
nodes = (
"338 0 LINE",
"260 59 OFFCURVE",
"147 179 OFFCURVE",
"85 317 OFFCURVE",
"85 401 QCURVE SMOOTH",
"85 485 OFFCURVE",
"146 623 OFFCURVE",
"260 744 OFFCURVE",
"337 802 QCURVE",
"431 802 LINE",
"509 744 OFFCURVE",
"622 623 OFFCURVE",
"683 485 OFFCURVE",
"683 401 QCURVE SMOOTH",
"683 317 OFFCURVE",
"622 179 OFFCURVE",
"509 59 OFFCURVE",
"431 0 QCURVE"
);
},
{
closed = 1;
nodes = (
"519 606 LINE",
"494 637 OFFCURVE",
"428 700 OFFCURVE",
"386 735 QCURVE",
"382 735 LINE",
"314 678 OFFCURVE",
"223 576 OFFCURVE",
"178 468 OFFCURVE",
"178 401 QCURVE SMOOTH",
"178 325 OFFCURVE",
"208 263 QCURVE"
);
},
{
closed = 1;
nodes = (
"386 68 LINE",
"455 125 OFFCURVE",
"545 226 OFFCURVE",
"590 334 OFFCURVE",
"590 401 QCURVE SMOOTH",
"590 481 OFFCURVE",
"558 542 QCURVE",
"250 197 LINE",
"275 165 OFFCURVE",
"341 103 OFFCURVE",
"382 68 QCURVE"
);
}
);
width = 768;
}
);
unicode = 10C97;
},
{
glyphname = u10C98;
layers = (
{
layerId = "2D854B59-3A96-4021-89E9-F3E1522D96CD";
paths = (
{
closed = 1;
nodes = (
"402 0 LINE",
"72 187 LINE",
"72 269 LINE",
"288 404 LINE",
"72 540 LINE",
"72 623 LINE",
"402 802 LINE",
"497 802 LINE",
"497 0 LINE"
);
},
{
closed = 1;
nodes = (
"407 420 LINE",
"407 715 LINE",
"156 580 LINE"
);
},
{
closed = 1;
nodes = (
"407 94 LINE",
"407 389 LINE",
"156 232 LINE"
);
}
);
width = 627;
}
);
unicode = 10C98;
},
{
glyphname = u10C99;
layers = (
{
layerId = "2D854B59-3A96-4021-89E9-F3E1522D96CD";
paths = (
{
closed = 1;
nodes = (
"67 47 LINE",
"174 110 OFFCURVE",
"302 218 OFFCURVE",
"358 329 OFFCURVE",
"358 397 QCURVE SMOOTH",
"358 447 OFFCURVE",
"328 533 OFFCURVE",
"260 613 OFFCURVE",
"146 701 OFFCURVE",
"62 752 QCURVE",
"123 814 LINE",
"245 741 OFFCURVE",
"389 611 OFFCURVE",
"452 477 OFFCURVE",
"452 397 QCURVE SMOOTH",
"452 317 OFFCURVE",
"388 183 OFFCURVE",
"242 55 OFFCURVE",
"118 -19 QCURVE"
);
}
);
width = 538;
}
);
unicode = 10C99;
},
{
glyphname = u10C9A;
layers = (
{
layerId = "2D854B59-3A96-4021-89E9-F3E1522D96CD";
paths = (
{
closed = 1;
nodes = (
"122 0 LINE",
"122 799 LINE",
"212 799 LINE",
"336 736 OFFCURVE",
"487 611 OFFCURVE",
"557 477 OFFCURVE",
"557 399 QCURVE SMOOTH",
"557 320 OFFCURVE",
"488 185 OFFCURVE",
"336 63 OFFCURVE",
"212 0 QCURVE"
);
},
{
closed = 1;
nodes = (
"212 92 LINE",
"302 140 OFFCURVE",
"412 233 OFFCURVE",
"463 337 OFFCURVE",
"463 399 QCURVE SMOOTH",
"463 461 OFFCURVE",
"414 563 OFFCURVE",
"304 658 OFFCURVE",
"212 709 QCURVE"
);
}
);
width = 633;
}
);
unicode = 10C9A;
},
{
glyphname = u10C9B;
layers = (
{
layerId = "2D854B59-3A96-4021-89E9-F3E1522D96CD";
paths = (
{
closed = 1;
nodes = (
"55 187 LINE",
"117 244 LINE",
"299 86 LINE",
"359 134 OFFCURVE",
"432 226 OFFCURVE",
"465 330 OFFCURVE",
"465 393 QCURVE SMOOTH",
"465 455 OFFCURVE",
"432 554 OFFCURVE",
"355 649 OFFCURVE",
"289 702 QCURVE",
"117 553 LINE",
"55 610 LINE",
"291 814 LINE",
"389 739 OFFCURVE",
"507 607 OFFCURVE",
"559 474 OFFCURVE",
"559 393 QCURVE SMOOTH",
"559 306 OFFCURVE",
"500 169 OFFCURVE",
"381 47 OFFCURVE",
"291 -17 QCURVE"
);
}
);
width = 634;
}
);
unicode = 10C9B;
},
{
glyphname = u10C9C;
layers = (
{
layerId = "2D854B59-3A96-4021-89E9-F3E1522D96CD";
paths = (
{
closed = 1;
nodes = (
"37 232 LINE",
"241 443 LINE",
"301 384 LINE",
"159 239 LINE",
"319 89 LINE",
"407 164 OFFCURVE",
"482 304 OFFCURVE",
"482 390 QCURVE SMOOTH",
"482 457 OFFCURVE",
"439 566 OFFCURVE",
"339 678 OFFCURVE",
"251 747 QCURVE",
"311 817 LINE",
"409 739 OFFCURVE",
"527 604 OFFCURVE",
"579 469 OFFCURVE",
"579 390 QCURVE SMOOTH",
"579 309 OFFCURVE",
"520 173 OFFCURVE",
"401 48 OFFCURVE",
"311 -19 QCURVE"
);
}
);
width = 658;
}
);
unicode = 10C9C;
},
{
glyphname = u10C9D;
layers = (
{
layerId = "2D854B59-3A96-4021-89E9-F3E1522D96CD";
paths = (
{
closed = 1;
nodes = (
"336 -17 LINE",
"71 274 LINE",
"293 522 LINE",
"76 750 LINE",
"140 814 LINE",
"411 527 LINE",
"190 278 LINE",
"399 47 LINE"
);
}
);
width = 482;
}
);
unicode = 10C9D;
},
{
glyphname = u10C9E;
layers = (
{
layerId = "2D854B59-3A96-4021-89E9-F3E1522D96CD";
paths = (
{
closed = 1;
nodes = (
"123 -2 LINE",
"123 799 LINE",
"213 799 LINE",
"213 407 LINE",
"488 799 LINE",
"597 799 LINE",
"317 410 LINE",
"606 -2 LINE",
"492 -2 LINE",
"213 405 LINE",
"213 -2 LINE"
);
}
);
width = 624;
}
);
unicode = 10C9E;
},
{
glyphname = u10C9F;
layers = (
{
layerId = "2D854B59-3A96-4021-89E9-F3E1522D96CD";
paths = (
{
closed = 1;
nodes = (
"39 227 LINE",
"42 228 LINE",
"37 231 LINE",
"241 439 LINE",
"305 379 LINE",
"163 235 LINE",
"320 88 LINE",
"352 116 OFFCURVE",
"402 167 OFFCURVE",
"421 193 QCURVE",
"364 241 LINE",
"412 293 LINE",
"458 255 LINE",
"485 317 OFFCURVE",
"485 388 QCURVE SMOOTH",
"485 461 OFFCURVE",
"456 524 QCURVE",
"412 488 LINE",
"364 540 LINE",
"418 585 LINE",
"390 620 OFFCURVE",
"308 698 OFFCURVE",
"251 743 QCURVE",
"311 812 LINE",
"369 766 OFFCURVE",
"457 684 OFFCURVE",
"488 644 QCURVE",
"576 718 LINE",
"624 664 LINE",
"528 584 LINE",
"555 538 OFFCURVE",
"579 442 OFFCURVE",
"579 388 QCURVE SMOOTH",
"579 282 OFFCURVE",
"527 196 QCURVE",
"627 113 LINE",
"579 61 LINE",
"486 139 LINE",
"454 100 OFFCURVE",
"367 22 OFFCURVE",
"311 -19 QCURVE"
);
}
);
width = 724;
}
);
unicode = 10C9F;
},
{
glyphname = u10CA0;
layers = (
{
layerId = "2D854B59-3A96-4021-89E9-F3E1522D96CD";
paths = (
{
closed = 1;
nodes = (
"116 -21 LINE",
"61 31 LINE",
"361 301 LINE",
"361 446 LINE",
"116 222 LINE",
"61 274 LINE",
"361 546 LINE",
"361 692 LINE",
"116 467 LINE",
"61 519 LINE",
"370 799 LINE",
"451 799 LINE",
"451 -1 LINE",
"361 -1 LINE",
"361 202 LINE"
);
}
);
width = 578;
}
);
unicode = 10CA0;
},
{
glyphname = u10CA1;
layers = (
{
layerId = "2D854B59-3A96-4021-89E9-F3E1522D96CD";
paths = (
{
closed = 1;
nodes = (
"235 -32 LINE",
"170 25 LINE",
"300 153 LINE",
"269 193 OFFCURVE",
"226 278 OFFCURVE",
"215 325 QCURVE",
"80 247 LINE",
"39 321 LINE",
"208 408 LINE",
"209 466 OFFCURVE",
"247 583 OFFCURVE",
"293 639 QCURVE",
"291 642 LINE",
"160 578 LINE",
"121 653 LINE",
"464 804 LINE",
"563 804 LINE",
"906 653 LINE",
"867 578 LINE",
"735 642 LINE",
"732 639 LINE",
"779 584 OFFCURVE",
"811 466 OFFCURVE",
"812 408 QCURVE",
"981 321 LINE",
"939 247 LINE",
"804 325 LINE",
"785 235 OFFCURVE",
"720 153 QCURVE",
"856 25 LINE",
"792 -32 LINE",
"667 94 LINE",
"642 70 OFFCURVE",
"593 25 OFFCURVE",
"563 1 QCURVE",
"465 1 LINE",
"434 25 OFFCURVE",
"379 70 OFFCURVE",
"354 94 QCURVE"
);
},
{
closed = 1;
nodes = (
"517 69 LINE",
"616 142 OFFCURVE",
"725 302 OFFCURVE",
"725 408 QCURVE SMOOTH",
"725 510 OFFCURVE",
"624 672 OFFCURVE",
"517 732 QCURVE",
"513 732 LINE",
"407 672 OFFCURVE",
"305 510 OFFCURVE",
"305 408 QCURVE SMOOTH",
"305 302 OFFCURVE",
"415 142 OFFCURVE",
"513 69 QCURVE"
);
}
);
width = 1027;
}
);
unicode = 10CA1;
},
{
glyphname = u10CA2;
layers = (
{
layerId = "2D854B59-3A96-4021-89E9-F3E1522D96CD";
paths = (
{
closed = 1;
nodes = (
"130 2 LINE",
"130 802 LINE",
"220 802 LINE",
"220 325 LINE",
"613 573 LINE",
"613 802 LINE",
"703 802 LINE",
"703 2 LINE",
"613 2 LINE",
"613 480 LINE",
"220 237 LINE",
"220 2 LINE"
);
}
);
width = 832;
}
);
unicode = 10CA2;
},
{
glyphname = u10CA3;
layers = (
{
layerId = "2D854B59-3A96-4021-89E9-F3E1522D96CD";
paths = (
{
closed = 1;
nodes = (
"93 187 LINE",
"52 261 LINE",
"514 534 LINE",
"556 460 LINE"
);
}
);
width = 613;
}
);
unicode = 10CA3;
},
{
glyphname = u10CA4;
layers = (
{
layerId = "2D854B59-3A96-4021-89E9-F3E1522D96CD";
paths = (
{
closed = 1;
nodes = (
"13 0 LINE",
"320 802 LINE",
"411 802 LINE",
"712 0 LINE",
"617 0 LINE",
"424 518 LINE SMOOTH",
"406 566 OFFCURVE",
"374 657 OFFCURVE",
"364 695 QCURVE",
"360 695 LINE",
"350 657 OFFCURVE",
"318 566 OFFCURVE",
"299 516 QCURVE SMOOTH",
"108 0 LINE"
);
}
);
width = 724;
}
);
unicode = 10CA4;
},
{
glyphname = u10CA5;
layers = (
{
layerId = "2D854B59-3A96-4021-89E9-F3E1522D96CD";
paths = (
{
closed = 1;
nodes = (
"124 -103 LINE",
"124 802 LINE",
"214 802 LINE",
"214 -103 LINE"
);
}
);
width = 341;
}
);
unicode = 10CA5;
},
{
glyphname = u10CA6;
layers = (
{
layerId = "2D854B59-3A96-4021-89E9-F3E1522D96CD";
paths = (
{
closed = 1;
nodes = (
"356 -4 LINE",
"356 320 LINE",
"10 759 LINE",
"82 804 LINE",
"356 449 LINE",
"356 780 LINE",
"446 780 LINE",
"446 -4 LINE"
);
}
);
width = 567;
}
);
unicode = 10CA6;
},
{
glyphname = u10CA7;
layers = (
{
layerId = "2D854B59-3A96-4021-89E9-F3E1522D96CD";
paths = (
{
closed = 1;
nodes = (
"388 0 LINE",
"388 494 LINE",
"185 695 LINE",
"76 589 LINE",
"20 644 LINE",
"188 804 LINE",
"388 603 LINE",
"388 793 LINE",
"478 793 LINE",
"478 602 LINE",
"679 804 LINE",
"847 644 LINE",
"790 589 LINE",
"681 695 LINE",
"478 493 LINE",
"478 0 LINE"
);
}
);
width = 866;
}
);
unicode = 10CA7;
},
{
glyphname = u10CA8;
layers = (
{
layerId = "2D854B59-3A96-4021-89E9-F3E1522D96CD";
paths = (
{
closed = 1;
nodes = (
"268 2 LINE",
"420 238 LINE",
"343 356 LINE",
"108 3 LINE",
"4 3 LINE",
"286 420 LINE",
"22 802 LINE",
"132 802 LINE",
"227 661 LINE",
"317 802 LINE",
"413 802 LINE",
"274 589 LINE",
"346 482 LINE",
"563 802 LINE",
"667 802 LINE",
"404 422 LINE",
"687 3 LINE",
"575 3 LINE",
"468 166 LINE",
"364 2 LINE"
);
}
);
width = 691;
}
);
unicode = 10CA8;
},
{
glyphname = u10CA9;
layers = (
{
layerId = "2D854B59-3A96-4021-89E9-F3E1522D96CD";
paths = (
{
closed = 1;
nodes = (
"607 -32 LINE",
"320 42 LINE",
"345 112 LINE",
"548 56 LINE",
"352 348 LINE",
"104 -6 LINE",
"4 -6 LINE",
"298 408 LINE",
"34 800 LINE",
"141 800 LINE",
"356 469 LINE",
"547 743 LINE",
"344 686 LINE",
"323 755 LINE",
"609 832 LINE",
"670 780 LINE",
"407 413 LINE",
"671 30 LINE"
);
}
);
width = 724;
}
);
unicode = 10CA9;
},
{
glyphname = u10CAA;
layers = (
{
layerId = "2D854B59-3A96-4021-89E9-F3E1522D96CD";
paths = (
{
closed = 1;
nodes = (
"124 -2 LINE",
"124 799 LINE",
"212 799 LINE",
"437 635 LINE",
"662 799 LINE",
"750 799 LINE",
"750 -2 LINE",
"662 -2 LINE",
"437 163 LINE",
"212 -2 LINE"
);
},
{
closed = 1;
nodes = (
"214 99 LINE",
"437 257 LINE",
"660 99 LINE",
"660 698 LINE",
"437 540 LINE",
"214 698 LINE"
);
}
);
width = 885;
}
);
unicode = 10CAA;
},
{
glyphname = u10CAB;
layers = (
{
layerId = "2D854B59-3A96-4021-89E9-F3E1522D96CD";
paths = (
{
closed = 1;
nodes = (
"122 0 LINE",
"122 802 LINE",
"204 802 LINE",
"478 466 LINE",
"755 802 LINE",
"837 802 LINE",
"837 0 LINE",
"755 0 LINE",
"478 338 LINE",
"204 0 LINE"
);
},
{
closed = 1;
nodes = (
"744 138 LINE",
"748 138 LINE",
"748 665 LINE",
"744 665 LINE",
"528 401 LINE"
);
},
{
closed = 1;
nodes = (
"211 145 LINE",
"215 145 LINE",
"426 401 LINE",
"215 657 LINE",
"211 657 LINE"
);
}
);
width = 953;
}
);
unicode = 10CAB;
},
{
glyphname = u10CAC;
layers = (
{
layerId = "2D854B59-3A96-4021-89E9-F3E1522D96CD";
paths = (
{
closed = 1;
nodes = (
"106 -17 LINE",
"41 40 LINE",
"165 163 LINE",
"127 215 OFFCURVE",
"85 332 OFFCURVE",
"85 401 QCURVE SMOOTH",
"85 470 OFFCURVE",
"127 587 OFFCURVE",
"165 640 QCURVE",
"41 761 LINE",
"106 819 LINE",
"218 700 LINE",
"244 728 OFFCURVE",
"303 779 OFFCURVE",
"337 804 QCURVE",
"431 804 LINE",
"465 778 OFFCURVE",
"526 727 OFFCURVE",
"551 700 QCURVE",
"663 819 LINE",
"727 761 LINE",
"603 639 LINE",
"641 587 OFFCURVE",
"683 469 OFFCURVE",
"683 401 QCURVE SMOOTH",
"683 332 OFFCURVE",
"641 216 OFFCURVE",
"603 163 QCURVE",
"728 40 LINE",
"663 -17 LINE",
"551 102 LINE",
"525 75 OFFCURVE",
"465 24 OFFCURVE",
"431 -2 QCURVE",
"338 -2 LINE",
"304 24 OFFCURVE",
"244 75 OFFCURVE",
"218 102 QCURVE"
);
},
{
closed = 1;
nodes = (
"386 67 LINE",
"455 123 OFFCURVE",
"545 225 OFFCURVE",
"590 334 OFFCURVE",
"590 401 QCURVE SMOOTH",
"590 468 OFFCURVE",
"545 577 OFFCURVE",
"455 680 OFFCURVE",
"386 736 QCURVE",
"382 736 LINE",
"314 680 OFFCURVE",
"223 577 OFFCURVE",
"178 468 OFFCURVE",
"178 401 QCURVE SMOOTH",
"178 334 OFFCURVE",
"223 225 OFFCURVE",
"314 123 OFFCURVE",
"382 67 QCURVE"
);
}
);
width = 769;
}
);
unicode = 10CAC;
},
{
glyphname = u10CAD;
layers = (
{
layerId = "2D854B59-3A96-4021-89E9-F3E1522D96CD";
paths = (
{
closed = 1;
nodes = (
"567 0 LINE",
"567 488 LINE",
"220 247 LINE",
"130 247 LINE",
"130 799 LINE",
"220 799 LINE",
"220 345 LINE",
"567 590 LINE",
"657 590 LINE",
"657 0 LINE"
);
}
);
width = 788;
}
);
unicode = 10CAD;
},
{
glyphname = u10CAE;
layers = (
{
layerId = "2D854B59-3A96-4021-89E9-F3E1522D96CD";
paths = (
{
closed = 1;
nodes = (
"124 0 LINE",
"124 802 LINE",
"212 802 LINE",
"437 638 LINE",
"662 802 LINE",
"750 802 LINE",
"750 0 LINE",
"660 0 LINE",
"660 701 LINE",
"437 542 LINE",
"214 701 LINE",
"214 0 LINE"
);
}
);
width = 888;
}
);
unicode = 10CAE;
},
{
glyphname = u10CAF;
layers = (
{
layerId = "2D854B59-3A96-4021-89E9-F3E1522D96CD";
paths = (
{
closed = 1;
nodes = (
"121 0 LINE",
"121 802 LINE",
"211 802 LINE",
"211 560 LINE",
"618 802 LINE",
"705 802 LINE",
"705 0 LINE",
"615 0 LINE",
"615 244 LINE",
"208 0 LINE"
);
},
{
closed = 1;
nodes = (
"211 324 LINE",
"615 564 LINE",
"615 716 LINE",
"211 476 LINE"
);
},
{
closed = 1;
nodes = (
"211 89 LINE",
"615 329 LINE",
"615 480 LINE",
"211 240 LINE"
);
}
);
width = 820;
}
);
unicode = 10CAF;
},
{
glyphname = u10CB0;
layers = (
{
layerId = "2D854B59-3A96-4021-89E9-F3E1522D96CD";
paths = (
{
closed = 1;
nodes = (
"350 2 LINE",
"350 345 LINE",
"10 782 LINE",
"84 830 LINE",
"350 479 LINE",
"350 804 LINE",
"440 804 LINE",
"440 479 LINE",
"706 830 LINE",
"780 782 LINE",
"440 345 LINE",
"440 2 LINE"
);
}
);
width = 796;
}
);
unicode = 10CB0;
},
{
glyphname = u10CB1;
layers = (
{
layerId = "2D854B59-3A96-4021-89E9-F3E1522D96CD";
paths = (
{
closed = 1;
nodes = (
"387 0 LINE",
"185 201 LINE",
"76 93 LINE",
"20 150 LINE",
"188 309 LINE",
"387 106 LINE",
"387 252 LINE",
"185 453 LINE",
"76 345 LINE",
"20 401 LINE",
"188 561 LINE",
"387 359 LINE",
"387 504 LINE",
"185 705 LINE",
"76 598 LINE",
"20 654 LINE",
"188 814 LINE",
"387 611 LINE",
"387 805 LINE",
"477 805 LINE",
"477 611 LINE",
"677 814 LINE",
"845 654 LINE",
"788 598 LINE",
"679 705 LINE",
"477 504 LINE",
"477 359 LINE",
"677 561 LINE",
"845 401 LINE",
"788 345 LINE",
"679 453 LINE",
"477 252 LINE",
"477 106 LINE",
"677 309 LINE",
"845 150 LINE",
"788 93 LINE",
"679 201 LINE",
"477 0 LINE"
);
}
);
width = 866;
}
);
unicode = 10CB1;
},
{
glyphname = u10CB2;
layers = (
{
layerId = "2D854B59-3A96-4021-89E9-F3E1522D96CD";
paths = (
{
closed = 1;
nodes = (
"335 -2 LINE",
"258 57 OFFCURVE",
"142 178 OFFCURVE",
"78 316 OFFCURVE",
"78 400 QCURVE SMOOTH",
"78 484 OFFCURVE",
"142 622 OFFCURVE",
"258 744 OFFCURVE",
"335 802 QCURVE",
"434 802 LINE",
"512 744 OFFCURVE",
"627 622 OFFCURVE",
"691 484 OFFCURVE",
"691 400 QCURVE SMOOTH",
"691 316 OFFCURVE",
"627 178 OFFCURVE",
"512 57 OFFCURVE",
"434 -2 QCURVE"
);
},
{
closed = 1;
nodes = (
"342 707 LINE",
"285 657 OFFCURVE",
"210 562 OFFCURVE",
"173 461 OFFCURVE",
"173 400 QCURVE SMOOTH",
"173 339 OFFCURVE",
"210 238 OFFCURVE",
"285 144 OFFCURVE",
"342 93 QCURVE"
);
},
{
closed = 1;
nodes = (
"427 93 LINE",
"484 144 OFFCURVE",
"559 238 OFFCURVE",
"595 339 OFFCURVE",
"595 400 QCURVE SMOOTH",
"595 461 OFFCURVE",
"559 562 OFFCURVE",
"484 657 OFFCURVE",
"427 707 QCURVE"
);
}
);
width = 769;
}
);
unicode = 10CB2;
},
{
glyphname = u10CC0;
layers = (
{
layerId = "2D854B59-3A96-4021-89E9-F3E1522D96CD";
paths = (
{
closed = 1;
nodes = (
"262 0 LINE",
"262 289 LINE",
"32 300 LINE",
"32 409 LINE",
"230 600 LINE",
"349 600 LINE",
"349 0 LINE"
);
},
{
closed = 1;
nodes = (
"262 366 LINE",
"262 523 LINE",
"108 373 LINE"
);
}
);
width = 444;
}
);
unicode = 10CC0;
},
{
glyphname = u10CC1;
layers = (
{
layerId = "2D854B59-3A96-4021-89E9-F3E1522D96CD";
paths = (
{
closed = 1;
nodes = (
"251 0 LINE",
"251 164 LINE",
"42 334 LINE",
"42 414 LINE",
"253 600 LINE",
"338 600 LINE",
"338 0 LINE"
);
},
{
closed = 1;
nodes = (
"251 268 LINE",
"251 495 LINE",
"118 375 LINE"
);
}
);
width = 433;
}
);
unicode = 10CC1;
},
{
glyphname = u10CC2;
layers = (
{
layerId = "2D854B59-3A96-4021-89E9-F3E1522D96CD";
paths = (
{
closed = 1;
nodes = (
"10 0 LINE",
"217 311 LINE",
"22 600 LINE",
"121 600 LINE",
"270 371 LINE",
"419 600 LINE",
"513 600 LINE",
"321 313 LINE",
"528 0 LINE",
"427 0 LINE",
"267 253 LINE",
"104 0 LINE"
);
}
);
width = 538;
}
);
unicode = 10CC2;
},
{
glyphname = u10CC3;
layers = (
{
layerId = "2D854B59-3A96-4021-89E9-F3E1522D96CD";
paths = (
{
closed = 1;
nodes = (
"193 -1 LINE",
"40 65 LINE",
"70 131 LINE",
"170 83 LINE",
"208 132 LINE",
"183 169 OFFCURVE",
"155 252 OFFCURVE",
"155 300 QCURVE SMOOTH",
"155 347 OFFCURVE",
"183 430 OFFCURVE",
"208 467 QCURVE",
"170 515 LINE",
"70 467 LINE",
"40 535 LINE",
"193 600 LINE",
"256 525 LINE",
"276 545 OFFCURVE",
"319 581 OFFCURVE",
"343 600 QCURVE",
"412 600 LINE",
"435 582 OFFCURVE",
"478 546 OFFCURVE",
"497 527 QCURVE",
"559 600 LINE",
"711 535 LINE",
"683 467 LINE",
"581 515 LINE",
"545 470 LINE",
"572 433 OFFCURVE",
"601 349 OFFCURVE",
"601 300 QCURVE SMOOTH",
"601 251 OFFCURVE",
"572 168 OFFCURVE",
"545 130 QCURVE",
"581 83 LINE",
"683 131 LINE",
"711 65 LINE",
"559 -1 LINE",
"497 73 LINE",
"478 54 OFFCURVE",
"435 18 OFFCURVE",
"412 0 QCURVE",
"343 0 LINE",
"295 36 OFFCURVE",
"257 74 QCURVE"
);
},
{
closed = 1;
nodes = (
"379 64 LINE",
"451 125 OFFCURVE",
"518 230 OFFCURVE",
"518 300 QCURVE SMOOTH",
"518 370 OFFCURVE",
"450 475 OFFCURVE",
"379 536 QCURVE",
"377 536 LINE",
"329 495 OFFCURVE",
"267 423 OFFCURVE",
"238 347 OFFCURVE",
"238 300 QCURVE SMOOTH",
"238 252 OFFCURVE",
"268 176 OFFCURVE",
"329 105 OFFCURVE",
"377 64 QCURVE"
);
}
);
width = 751;
}
);
unicode = 10CC3;
},
{
glyphname = u10CC4;
layers = (
{
layerId = "2D854B59-3A96-4021-89E9-F3E1522D96CD";
paths = (
{
closed = 1;
nodes = (
"180 0 LINE",
"180 488 LINE",
"53 376 LINE",
"4 434 LINE",
"195 600 LINE",
"252 600 LINE",
"443 434 LINE",
"394 376 LINE",
"267 488 LINE",
"267 0 LINE"
);
}
);
width = 447;
}
);
unicode = 10CC4;
},
{
glyphname = u10CC5;
layers = (
{
layerId = "2D854B59-3A96-4021-89E9-F3E1522D96CD";
paths = (
{
closed = 1;
nodes = (
"195 0 LINE",
"4 166 LINE",
"53 224 LINE",
"180 112 LINE",
"180 488 LINE",
"53 376 LINE",
"4 434 LINE",
"195 600 LINE",
"252 600 LINE",
"443 434 LINE",
"394 376 LINE",
"267 488 LINE",
"267 112 LINE",
"394 224 LINE",
"443 166 LINE",
"252 0 LINE"
);
}
);
width = 447;
}
);
unicode = 10CC5;
},
{
glyphname = u10CC6;
layers = (
{
layerId = "2D854B59-3A96-4021-89E9-F3E1522D96CD";
paths = (
{
closed = 1;
nodes = (
"95 0 LINE",
"95 600 LINE",
"180 600 LINE",
"180 428 LINE",
"444 600 LINE",
"520 600 LINE",
"520 0 LINE",
"435 0 LINE",
"435 170 LINE",
"171 0 LINE"
);
},
{
closed = 1;
nodes = (
"180 91 LINE",
"435 255 LINE",
"435 510 LINE",
"180 343 LINE"
);
}
);
width = 615;
}
);
unicode = 10CC6;
},
{
glyphname = u10CC7;
layers = (
{
layerId = "2D854B59-3A96-4021-89E9-F3E1522D96CD";
paths = (
{
closed = 1;
nodes = (
"175 0 LINE",
"175 245 LINE",
"60 186 LINE",
"26 251 LINE",
"175 328 LINE",
"175 600 LINE",
"262 600 LINE",
"262 374 LINE",
"378 434 LINE",
"411 366 LINE",
"262 290 LINE",
"262 0 LINE"
);
}
);
width = 437;
}
);
unicode = 10CC7;
},
{
glyphname = u10CC8;
layers = (
{
layerId = "2D854B59-3A96-4021-89E9-F3E1522D96CD";
paths = (
{
closed = 1;
nodes = (
"10 0 LINE",
"178 252 LINE",
"56 217 LINE",
"33 278 LINE",
"206 328 LINE",
"22 600 LINE",
"121 600 LINE",
"270 371 LINE",
"419 600 LINE",
"513 600 LINE",
"361 372 LINE",
"481 407 LINE",
"496 343 LINE",
"332 296 LINE",
"528 0 LINE",
"427 0 LINE",
"267 253 LINE",
"104 0 LINE"
);
}
);
width = 538;
}
);
unicode = 10CC8;
},
{
glyphname = u10CC9;
layers = (
{
layerId = "2D854B59-3A96-4021-89E9-F3E1522D96CD";
paths = (
{
closed = 1;
nodes = (
"311 -27 LINE",
"226 51 LINE",
"171 16 OFFCURVE",
"91 -20 QCURVE",
"54 47 LINE",
"120 76 OFFCURVE",
"166 104 QCURVE",
"90 174 LINE",
"138 229 LINE",
"227 148 LINE",
"265 181 OFFCURVE",
"294 254 OFFCURVE",
"294 300 QCURVE SMOOTH",
"294 344 OFFCURVE",
"265 414 OFFCURVE",
"227 446 QCURVE",
"138 365 LINE",
"90 420 LINE",
"167 490 LINE",
"143 504 OFFCURVE",
"85 535 OFFCURVE",
"50 551 QCURVE",
"95 618 LINE",
"175 581 OFFCURVE",
"229 546 QCURVE",
"311 621 LINE",
"354 561 LINE",
"289 502 LINE",
"339 459 OFFCURVE",
"383 362 OFFCURVE",
"383 300 QCURVE SMOOTH",
"383 237 OFFCURVE",
"337 139 OFFCURVE",
"286 95 QCURVE",
"354 33 LINE"
);
}
);
width = 411;
}
);
unicode = 10CC9;
},
{
glyphname = u10CCA;
layers = (
{
layerId = "2D854B59-3A96-4021-89E9-F3E1522D96CD";
paths = (
{
closed = 1;
nodes = (
"54 47 LINE",
"84 61 OFFCURVE",
"135 86 OFFCURVE",
"157 99 QCURVE",
"108 142 OFFCURVE",
"65 239 OFFCURVE",
"65 300 QCURVE SMOOTH",
"65 359 OFFCURVE",
"108 455 OFFCURVE",
"154 497 QCURVE",
"132 510 OFFCURVE",
"81 537 OFFCURVE",
"50 551 QCURVE",
"95 618 LINE",
"170 584 OFFCURVE",
"224 549 QCURVE",
"278 584 OFFCURVE",
"353 618 QCURVE",
"398 551 LINE",
"367 537 OFFCURVE",
"316 510 OFFCURVE",
"294 497 QCURVE",
"341 455 OFFCURVE",
"383 359 OFFCURVE",
"383 300 QCURVE SMOOTH",
"383 239 OFFCURVE",
"340 142 OFFCURVE",
"291 99 QCURVE",
"313 86 OFFCURVE",
"364 61 OFFCURVE",
"394 47 QCURVE",
"357 -20 LINE",
"278 17 OFFCURVE",
"224 50 QCURVE",
"170 17 OFFCURVE",
"91 -20 QCURVE"
);
},
{
closed = 1;
nodes = (
"263 180 OFFCURVE",
"294 254 OFFCURVE",
"294 300 QCURVE SMOOTH",
"294 345 OFFCURVE",
"263 416 OFFCURVE",
"224 449 QCURVE",
"185 416 OFFCURVE",
"154 345 OFFCURVE",
"154 300 QCURVE SMOOTH",
"154 254 OFFCURVE",
"185 180 OFFCURVE",
"224 146 QCURVE"
);
}
);
width = 428;
}
);
unicode = 10CCA;
},
{
glyphname = u10CCB;
layers = (
{
layerId = "2D854B59-3A96-4021-89E9-F3E1522D96CD";
paths = (
{
closed = 1;
nodes = (
"196 -41 LINE",
"34 97 LINE",
"104 137 LINE",
"168 178 OFFCURVE",
"223 256 OFFCURVE",
"223 300 QCURVE SMOOTH",
"223 346 OFFCURVE",
"161 428 OFFCURVE",
"90 471 QCURVE",
"34 502 LINE",
"196 639 LINE",
"247 580 LINE",
"166 514 LINE",
"244 462 OFFCURVE",
"309 362 OFFCURVE",
"309 300 QCURVE SMOOTH",
"309 238 OFFCURVE",
"244 137 OFFCURVE",
"167 86 QCURVE",
"247 20 LINE"
);
}
);
width = 354;
}
);
unicode = 10CCB;
},
{
glyphname = u10CCC;
layers = (
{
layerId = "2D854B59-3A96-4021-89E9-F3E1522D96CD";
paths = (
{
closed = 1;
nodes = (
"243 0 LINE",
"158 64 OFFCURVE",
"55 206 OFFCURVE",
"55 300 QCURVE SMOOTH",
"55 394 OFFCURVE",
"158 536 OFFCURVE",
"243 600 QCURVE",
"312 600 LINE",
"397 536 OFFCURVE",
"501 394 OFFCURVE",
"501 300 QCURVE SMOOTH",
"501 206 OFFCURVE",
"397 64 OFFCURVE",
"312 0 QCURVE"
);
},
{
closed = 1;
nodes = (
"278 349 LINE",
"366 449 LINE",
"350 470 OFFCURVE",
"306 513 OFFCURVE",
"279 536 QCURVE",
"277 536 LINE",
"250 513 OFFCURVE",
"207 470 OFFCURVE",
"190 450 QCURVE"
);
},
{
closed = 1;
nodes = (
"234 298 LINE",
"154 392 LINE",
"136 350 OFFCURVE",
"136 300 QCURVE SMOOTH",
"136 249 OFFCURVE",
"154 207 QCURVE"
);
},
{
closed = 1;
nodes = (
"402 208 LINE",
"420 250 OFFCURVE",
"420 300 QCURVE SMOOTH",
"420 349 OFFCURVE",
"402 391 QCURVE",
"322 298 LINE"
);
},
{
closed = 1;
nodes = (
"279 64 LINE",
"332 108 OFFCURVE",
"364 147 QCURVE",
"278 247 LINE",
"192 147 LINE",
"224 108 OFFCURVE",
"277 64 QCURVE"
);
}
);
width = 556;
}
);
unicode = 10CCC;
},
{
glyphname = u10CCD;
layers = (
{
layerId = "2D854B59-3A96-4021-89E9-F3E1522D96CD";
paths = (
{
closed = 1;
nodes = (
"5 0 LINE",
"247 600 LINE",
"318 600 LINE",
"561 0 LINE",
"472 0 LINE",
"383 225 LINE",
"300 0 LINE",
"213 0 LINE",
"341 330 LINE",
"325 371 LINE SMOOTH",
"311 408 OFFCURVE",
"291 471 OFFCURVE",
"285 496 QCURVE",
"281 496 LINE",
"275 470 OFFCURVE",
"256 415 OFFCURVE",
"239 371 QCURVE SMOOTH",
"92 0 LINE"
);
}
);
width = 565;
}
);
unicode = 10CCD;
},
{
glyphname = u10CCE;
layers = (
{
layerId = "2D854B59-3A96-4021-89E9-F3E1522D96CD";
paths = (
{
closed = 1;
nodes = (
"183 0 LINE",
"183 141 LINE",
"67 76 LINE",
"32 138 LINE",
"183 223 LINE",
"183 328 LINE",
"67 262 LINE",
"32 324 LINE",
"183 409 LINE",
"183 600 LINE",
"270 600 LINE",
"270 454 LINE",
"392 522 LINE",
"421 459 LINE",
"270 372 LINE",
"270 269 LINE",
"392 336 LINE",
"421 273 LINE",
"270 185 LINE",
"270 0 LINE"
);
}
);
width = 450;
}
);
unicode = 10CCE;
},
{
glyphname = u10CCF;
layers = (
{
layerId = "2D854B59-3A96-4021-89E9-F3E1522D96CD";
paths = (
{
closed = 1;
nodes = (
"44 0 LINE",
"213 154 LINE",
"40 311 LINE",
"213 455 LINE",
"42 600 LINE",
"151 600 LINE",
"268 501 LINE",
"386 600 LINE",
"494 600 LINE",
"324 455 LINE",
"496 311 LINE",
"323 154 LINE",
"492 0 LINE",
"385 0 LINE",
"268 105 LINE",
"152 0 LINE"
);
},
{
closed = 1;
nodes = (
"268 205 LINE",
"383 310 LINE",
"268 407 LINE",
"155 310 LINE"
);
}
);
width = 536;
}
);
unicode = 10CCF;
},
{
glyphname = u10CD0;
layers = (
{
layerId = "2D854B59-3A96-4021-89E9-F3E1522D96CD";
paths = (
{
closed = 1;
nodes = (
"183 0 LINE",
"183 362 LINE",
"67 297 LINE",
"32 359 LINE",
"183 442 LINE",
"183 600 LINE",
"270 600 LINE",
"270 490 LINE",
"392 557 LINE",
"421 494 LINE",
"270 410 LINE",
"270 0 LINE"
);
}
);
width = 452;
}
);
unicode = 10CD0;
},
{
glyphname = u10CD1;
layers = (
{
layerId = "2D854B59-3A96-4021-89E9-F3E1522D96CD";
paths = (
{
closed = 1;
nodes = (
"186 0 LINE",
"186 509 LINE",
"43 430 LINE",
"8 492 LINE",
"392 703 LINE",
"421 640 LINE",
"273 558 LINE",
"273 0 LINE"
);
}
);
width = 421;
}
);
unicode = 10CD1;
},
{
glyphname = u10CD2;
layers = (
{
layerId = "2D854B59-3A96-4021-89E9-F3E1522D96CD";
paths = (
{
closed = 1;
nodes = (
"225 0 LINE",
"225 485 LINE",
"65 331 LINE",
"11 383 LINE",
"235 600 LINE",
"312 600 LINE",
"312 0 LINE"
);
}
);
width = 407;
}
);
unicode = 10CD2;
},
{
glyphname = u10CD3;
layers = (
{
layerId = "2D854B59-3A96-4021-89E9-F3E1522D96CD";
paths = (
{
closed = 1;
nodes = (
"209 0 LINE",
"33 304 LINE",
"209 600 LINE",
"285 600 LINE",
"460 304 LINE",
"285 0 LINE"
);
},
{
closed = 1;
nodes = (
"247 83 LINE",
"370 303 LINE",
"247 517 LINE",
"123 303 LINE"
);
}
);
width = 493;
}
);
unicode = 10CD3;
},
{
glyphname = u10CD4;
layers = (
{
layerId = "2D854B59-3A96-4021-89E9-F3E1522D96CD";
paths = (
{
closed = 1;
nodes = (
"191 0 LINE",
"191 488 LINE",
"64 376 LINE",
"15 434 LINE",
"206 600 LINE",
"278 600 LINE",
"278 112 LINE",
"405 224 LINE",
"454 166 LINE",
"263 0 LINE"
);
}
);
width = 469;
}
);
unicode = 10CD4;
},
{
glyphname = u10CD5;
layers = (
{
layerId = "2D854B59-3A96-4021-89E9-F3E1522D96CD";
paths = (
{
closed = 1;
nodes = (
"194 -30 LINE",
"28 46 LINE",
"59 113 LINE",
"155 67 LINE",
"295 301 LINE",
"159 526 LINE",
"64 479 LINE",
"33 547 LINE",
"198 624 LINE",
"343 375 LINE",
"486 623 LINE",
"653 547 LINE",
"622 479 LINE",
"526 526 LINE",
"391 301 LINE",
"531 67 LINE",
"626 113 LINE",
"657 46 LINE",
"491 -30 LINE",
"343 227 LINE"
);
}
);
width = 685;
}
);
unicode = 10CD5;
},
{
glyphname = u10CD6;
layers = (
{
layerId = "2D854B59-3A96-4021-89E9-F3E1522D96CD";
paths = (
{
closed = 1;
nodes = (
"5 0 LINE",
"270 600 LINE",
"341 600 LINE",
"607 0 LINE",
"519 0 LINE",
"468 117 LINE",
"423 0 LINE",
"339 0 LINE",
"426 212 LINE",
"385 305 LINE",
"257 0 LINE",
"173 0 LINE",
"344 399 LINE",
"333 428 OFFCURVE",
"314 479 OFFCURVE",
"308 498 QCURVE",
"304 498 LINE",
"297 474 OFFCURVE",
"274 414 OFFCURVE",
"255 371 QCURVE SMOOTH",
"90 0 LINE"
);
}
);
width = 612;
}
);
unicode = 10CD6;
},
{
glyphname = u10CD7;
layers = (
{
layerId = "2D854B59-3A96-4021-89E9-F3E1522D96CD";
paths = (
{
closed = 1;
nodes = (
"243 0 LINE",
"158 64 OFFCURVE",
"55 206 OFFCURVE",
"55 300 QCURVE SMOOTH",
"55 394 OFFCURVE",
"158 536 OFFCURVE",
"243 600 QCURVE",
"312 600 LINE",
"397 536 OFFCURVE",
"501 394 OFFCURVE",
"501 300 QCURVE SMOOTH",
"501 206 OFFCURVE",
"397 64 OFFCURVE",
"312 0 QCURVE"
);
},
{
closed = 1;
nodes = (
"366 448 LINE",
"334 488 OFFCURVE",
"279 536 QCURVE",
"277 536 LINE",
"229 495 OFFCURVE",
"167 423 OFFCURVE",
"138 347 OFFCURVE",
"138 300 QCURVE SMOOTH",
"138 251 OFFCURVE",
"155 208 QCURVE"
);
},
{
closed = 1;
nodes = (
"279 64 LINE",
"351 125 OFFCURVE",
"418 230 OFFCURVE",
"418 300 QCURVE SMOOTH",
"418 347 OFFCURVE",
"401 389 QCURVE",
"193 147 LINE",
"209 127 OFFCURVE",
"251 86 OFFCURVE",
"277 64 QCURVE"
);
}
);
width = 556;
}
);
unicode = 10CD7;
},
{
glyphname = u10CD8;
layers = (
{
layerId = "2D854B59-3A96-4021-89E9-F3E1522D96CD";
paths = (
{
closed = 1;
nodes = (
"307 0 LINE",
"48 132 LINE",
"48 231 LINE",
"190 303 LINE",
"48 380 LINE",
"48 479 LINE",
"303 600 LINE",
"386 600 LINE",
"386 0 LINE"
);
},
{
closed = 1;
nodes = (
"306 320 LINE",
"306 514 LINE",
"121 426 LINE"
);
},
{
closed = 1;
nodes = (
"306 93 LINE",
"306 284 LINE",
"121 185 LINE"
);
}
);
width = 481;
}
);
unicode = 10CD8;
},
{
glyphname = u10CD9;
layers = (
{
layerId = "2D854B59-3A96-4021-89E9-F3E1522D96CD";
paths = (
{
closed = 1;
nodes = (
"36 47 LINE",
"130 89 OFFCURVE",
"234 164 OFFCURVE",
"276 246 OFFCURVE",
"276 300 QCURVE SMOOTH",
"276 352 OFFCURVE",
"234 431 OFFCURVE",
"128 506 OFFCURVE",
"32 551 QCURVE",
"77 618 LINE",
"181 570 OFFCURVE",
"307 477 OFFCURVE",
"365 369 OFFCURVE",
"365 300 QCURVE SMOOTH",
"365 230 OFFCURVE",
"307 122 OFFCURVE",
"179 28 OFFCURVE",
"73 -20 QCURVE"
);
}
);
width = 420;
}
);
unicode = 10CD9;
},
{
glyphname = u10CDA;
layers = (
{
layerId = "2D854B59-3A96-4021-89E9-F3E1522D96CD";
paths = (
{
closed = 1;
nodes = (
"95 0 LINE",
"95 600 LINE",
"180 600 LINE",
"271 552 OFFCURVE",
"383 459 OFFCURVE",
"435 359 OFFCURVE",
"435 300 QCURVE SMOOTH",
"435 239 OFFCURVE",
"384 138 OFFCURVE",
"272 48 OFFCURVE",
"180 0 QCURVE"
);
},
{
closed = 1;
nodes = (
"180 87 LINE",
"272 137 OFFCURVE",
"348 235 OFFCURVE",
"348 300 QCURVE SMOOTH",
"348 340 OFFCURVE",
"319 407 OFFCURVE",
"247 474 OFFCURVE",
"180 512 QCURVE"
);
}
);
width = 490;
}
);
unicode = 10CDA;
},
{
glyphname = u10CDB;
layers = (
{
layerId = "2D854B59-3A96-4021-89E9-F3E1522D96CD";
paths = (
{
closed = 1;
nodes = (
"32 146 LINE",
"90 204 LINE",
"219 81 LINE",
"281 134 OFFCURVE",
"331 234 OFFCURVE",
"331 295 QCURVE SMOOTH",
"331 336 OFFCURVE",
"309 406 OFFCURVE",
"257 475 OFFCURVE",
"212 514 QCURVE",
"90 397 LINE",
"32 455 LINE",
"211 624 LINE",
"287 564 OFFCURVE",
"378 459 OFFCURVE",
"418 355 OFFCURVE",
"418 295 QCURVE SMOOTH",
"418 200 OFFCURVE",
"315 55 OFFCURVE",
"211 -22 QCURVE"
);
}
);
width = 473;
}
);
unicode = 10CDB;
},
{
glyphname = u10CDC;
layers = (
{
layerId = "2D854B59-3A96-4021-89E9-F3E1522D96CD";
paths = (
{
closed = 1;
nodes = (
"28 182 LINE",
"182 348 LINE",
"239 290 LINE",
"141 187 LINE",
"250 80 LINE",
"315 133 OFFCURVE",
"366 232 OFFCURVE",
"366 293 QCURVE SMOOTH",
"366 340 OFFCURVE",
"334 419 OFFCURVE",
"256 502 OFFCURVE",
"187 554 QCURVE",
"241 618 LINE",
"319 559 OFFCURVE",
"411 456 OFFCURVE",
"452 353 OFFCURVE",
"452 293 QCURVE SMOOTH",
"452 199 OFFCURVE",
"348 55 OFFCURVE",
"241 -21 QCURVE"
);
}
);
width = 507;
}
);
unicode = 10CDC;
},
{
glyphname = u10CDD;
layers = (
{
layerId = "2D854B59-3A96-4021-89E9-F3E1522D96CD";
paths = (
{
closed = 1;
nodes = (
"263 -18 LINE",
"33 207 LINE",
"231 390 LINE",
"47 559 LINE",
"104 618 LINE",
"337 394 LINE",
"140 211 LINE",
"320 41 LINE"
);
}
);
width = 370;
}
);
unicode = 10CDD;
},
{
glyphname = u10CDE;
layers = (
{
layerId = "2D854B59-3A96-4021-89E9-F3E1522D96CD";
paths = (
{
closed = 1;
nodes = (
"95 0 LINE",
"95 600 LINE",
"182 600 LINE",
"182 308 LINE",
"370 600 LINE",
"467 600 LINE",
"269 307 LINE",
"474 0 LINE",
"372 0 LINE",
"182 300 LINE",
"182 0 LINE"
);
}
);
width = 492;
}
);
unicode = 10CDE;
},
{
glyphname = u10CDF;
layers = (
{
layerId = "2D854B59-3A96-4021-89E9-F3E1522D96CD";
paths = (
{
closed = 1;
nodes = (
"28 182 LINE",
"182 348 LINE",
"239 290 LINE",
"141 187 LINE",
"250 80 LINE",
"292 114 OFFCURVE",
"317 147 QCURVE",
"269 187 LINE",
"315 236 LINE",
"351 206 LINE",
"366 247 OFFCURVE",
"366 293 QCURVE SMOOTH",
"366 318 OFFCURVE",
"358 363 OFFCURVE",
"348 385 QCURVE",
"314 356 LINE",
"268 406 LINE",
"311 442 LINE",
"270 492 OFFCURVE",
"187 554 QCURVE",
"241 618 LINE",
"285 585 OFFCURVE",
"351 525 OFFCURVE",
"375 496 QCURVE",
"442 552 LINE",
"487 503 LINE",
"414 441 LINE",
"434 406 OFFCURVE",
"452 334 OFFCURVE",
"452 293 QCURVE SMOOTH",
"452 216 OFFCURVE",
"416 151 QCURVE",
"490 88 LINE",
"445 38 LINE",
"376 96 LINE",
"351 67 OFFCURVE",
"284 9 OFFCURVE",
"241 -21 QCURVE"
);
}
);
width = 541;
}
);
unicode = 10CDF;
},
{
glyphname = u10CE0;
layers = (
{
layerId = "2D854B59-3A96-4021-89E9-F3E1522D96CD";
paths = (
{
closed = 1;
nodes = (
"92 -9 LINE",
"42 45 LINE",
"273 232 LINE",
"273 322 LINE",
"92 170 LINE",
"42 223 LINE",
"273 411 LINE",
"273 501 LINE",
"92 348 LINE",
"42 401 LINE",
"283 600 LINE",
"358 600 LINE",
"358 0 LINE",
"273 0 LINE",
"273 144 LINE"
);
}
);
width = 453;
}
);
unicode = 10CE0;
},
{
glyphname = u10CE1;
layers = (
{
layerId = "2D854B59-3A96-4021-89E9-F3E1522D96CD";
paths = (
{
closed = 1;
nodes = (
"170 -17 LINE",
"111 36 LINE",
"207 127 LINE",
"171 177 OFFCURVE",
"158 231 QCURVE",
"52 174 LINE",
"14 241 LINE",
"150 311 LINE",
"152 356 OFFCURVE",
"180 432 OFFCURVE",
"205 465 QCURVE",
"82 406 LINE",
"47 475 LINE",
"337 600 LINE",
"409 600 LINE",
"699 475 LINE",
"664 406 LINE",
"540 466 LINE",
"566 432 OFFCURVE",
"595 356 OFFCURVE",
"596 311 QCURVE",
"732 241 LINE",
"694 174 LINE",
"588 231 LINE",
"581 203 OFFCURVE",
"556 152 OFFCURVE",
"539 127 QCURVE",
"635 36 LINE",
"576 -17 LINE",
"491 71 LINE",
"472 53 OFFCURVE",
"430 17 OFFCURVE",
"407 0 QCURVE",
"338 0 LINE",
"315 17 OFFCURVE",
"273 52 OFFCURVE",
"255 71 QCURVE"
);
},
{
closed = 1;
nodes = (
"374 64 LINE",
"446 125 OFFCURVE",
"513 230 OFFCURVE",
"513 300 QCURVE SMOOTH",
"513 372 OFFCURVE",
"445 481 OFFCURVE",
"374 536 QCURVE",
"372 536 LINE",
"299 481 OFFCURVE",
"233 372 OFFCURVE",
"233 300 QCURVE SMOOTH",
"233 252 OFFCURVE",
"263 176 OFFCURVE",
"324 105 OFFCURVE",
"372 64 QCURVE"
);
}
);
width = 746;
}
);
unicode = 10CE1;
},
{
glyphname = u10CE2;
layers = (
{
layerId = "2D854B59-3A96-4021-89E9-F3E1522D96CD";
paths = (
{
closed = 1;
nodes = (
"95 0 LINE",
"95 600 LINE",
"182 600 LINE",
"182 264 LINE",
"445 434 LINE",
"445 600 LINE",
"532 600 LINE",
"532 0 LINE",
"445 0 LINE",
"445 345 LINE",
"182 175 LINE",
"182 0 LINE"
);
}
);
width = 627;
}
);
unicode = 10CE2;
},
{
glyphname = u10CE3;
layers = (
{
layerId = "2D854B59-3A96-4021-89E9-F3E1522D96CD";
paths = (
{
closed = 1;
nodes = (
"66 177 LINE",
"27 245 LINE",
"369 440 LINE",
"409 372 LINE"
);
}
);
width = 441;
}
);
unicode = 10CE3;
},
{
glyphname = u10CE4;
layers = (
{
layerId = "2D854B59-3A96-4021-89E9-F3E1522D96CD";
paths = (
{
closed = 1;
nodes = (
"5 0 LINE",
"247 600 LINE",
"318 600 LINE",
"561 0 LINE",
"472 0 LINE",
"325 371 LINE SMOOTH",
"311 408 OFFCURVE",
"291 471 OFFCURVE",
"285 496 QCURVE",
"281 496 LINE",
"275 470 OFFCURVE",
"256 415 OFFCURVE",
"239 371 QCURVE SMOOTH",
"92 0 LINE"
);
}
);
width = 566;
}
);
unicode = 10CE4;
},
{
glyphname = u10CE5;
layers = (
{
layerId = "2D854B59-3A96-4021-89E9-F3E1522D96CD";
paths = (
{
closed = 1;
nodes = (
"95 0 LINE",
"95 600 LINE",
"182 600 LINE",
"182 0 LINE"
);
}
);
width = 277;
}
);
unicode = 10CE5;
},
{
glyphname = u10CE6;
layers = (
{
layerId = "2D854B59-3A96-4021-89E9-F3E1522D96CD";
paths = (
{
closed = 1;
nodes = (
"285 0 LINE",
"285 241 LINE",
"18 567 LINE",
"83 624 LINE",
"285 371 LINE",
"285 600 LINE",
"372 600 LINE",
"372 0 LINE"
);
}
);
width = 467;
}
);
unicode = 10CE6;
},
{
glyphname = u10CE7;
layers = (
{
layerId = "2D854B59-3A96-4021-89E9-F3E1522D96CD";
paths = (
{
closed = 1;
nodes = (
"288 0 LINE",
"288 350 LINE",
"143 508 LINE",
"67 430 LINE",
"14 482 LINE",
"147 611 LINE",
"288 455 LINE",
"288 600 LINE",
"373 600 LINE",
"373 456 LINE",
"515 611 LINE",
"647 482 LINE",
"595 430 LINE",
"518 508 LINE",
"373 351 LINE",
"373 0 LINE"
);
}
);
width = 661;
}
);
unicode = 10CE7;
},
{
glyphname = u10CE8;
layers = (
{
layerId = "2D854B59-3A96-4021-89E9-F3E1522D96CD";
paths = (
{
closed = 1;
nodes = (
"10 0 LINE",
"217 311 LINE",
"22 600 LINE",
"121 600 LINE",
"182 507 LINE",
"239 600 LINE",
"327 600 LINE",
"225 440 LINE",
"270 371 LINE",
"419 600 LINE",
"513 600 LINE",
"321 313 LINE",
"528 0 LINE",
"427 0 LINE",
"358 109 LINE",
"290 0 LINE",
"203 0 LINE",
"315 177 LINE",
"267 253 LINE",
"104 0 LINE"
);
}
);
width = 538;
}
);
unicode = 10CE8;
},
{
glyphname = u10CE9;
layers = (
{
layerId = "2D854B59-3A96-4021-89E9-F3E1522D96CD";
paths = (
{
closed = 1;
nodes = (
"444 -24 LINE",
"241 34 LINE",
"263 102 LINE",
"388 63 LINE",
"267 253 LINE",
"104 0 LINE",
"10 0 LINE",
"217 311 LINE",
"22 600 LINE",
"121 600 LINE",
"270 371 LINE",
"380 535 LINE",
"263 499 LINE",
"243 567 LINE",
"441 625 LINE",
"502 584 LINE",
"321 313 LINE",
"513 22 LINE"
);
}
);
width = 517;
}
);
unicode = 10CE9;
},
{
glyphname = u10CEA;
layers = (
{
layerId = "2D854B59-3A96-4021-89E9-F3E1522D96CD";
paths = (
{
closed = 1;
nodes = (
"95 0 LINE",
"95 600 LINE",
"172 600 LINE",
"331 486 LINE",
"488 600 LINE",
"567 600 LINE",
"567 0 LINE",
"488 0 LINE",
"331 114 LINE",
"172 0 LINE"
);
},
{
closed = 1;
nodes = (
"180 100 LINE",
"331 206 LINE",
"482 100 LINE",
"482 499 LINE",
"331 394 LINE",
"180 499 LINE"
);
}
);
width = 662;
}
);
unicode = 10CEA;
},
{
glyphname = u10CEB;
layers = (
{
layerId = "2D854B59-3A96-4021-89E9-F3E1522D96CD";
paths = (
{
closed = 1;
nodes = (
"95 0 LINE",
"95 600 LINE",
"173 600 LINE",
"356 355 LINE",
"542 600 LINE",
"615 600 LINE",
"615 0 LINE",
"542 0 LINE",
"356 243 LINE",
"173 0 LINE"
);
},
{
closed = 1;
nodes = (
"537 126 LINE",
"540 126 LINE",
"540 472 LINE",
"537 472 LINE",
"403 300 LINE"
);
},
{
closed = 1;
nodes = (
"175 131 LINE",
"178 131 LINE",
"309 300 LINE",
"178 467 LINE",
"175 467 LINE"
);
}
);
width = 710;
}
);
unicode = 10CEB;
},
{
glyphname = u10CEC;
layers = (
{
layerId = "2D854B59-3A96-4021-89E9-F3E1522D96CD";
paths = (
{
closed = 1;
nodes = (
"97 -15 LINE",
"38 38 LINE",
"127 129 LINE",
"100 167 OFFCURVE",
"71 251 OFFCURVE",
"71 300 QCURVE SMOOTH",
"71 349 OFFCURVE",
"100 434 OFFCURVE",
"127 471 QCURVE",
"38 560 LINE",
"97 613 LINE",
"176 528 LINE",
"211 564 OFFCURVE",
"259 600 QCURVE",
"328 600 LINE",
"375 564 OFFCURVE",
"412 528 QCURVE",
"492 613 LINE",
"551 560 LINE",
"461 471 LINE",
"487 433 OFFCURVE",
"517 349 OFFCURVE",
"517 300 QCURVE SMOOTH",
"517 251 OFFCURVE",
"487 167 OFFCURVE",
"461 129 QCURVE",
"551 38 LINE",
"492 -15 LINE",
"412 71 LINE",
"393 53 OFFCURVE",
"351 17 OFFCURVE",
"328 0 QCURVE",
"259 0 LINE",
"213 35 OFFCURVE",
"176 71 QCURVE"
);
},
{
closed = 1;
nodes = (
"295 64 LINE",
"367 125 OFFCURVE",
"434 230 OFFCURVE",
"434 300 QCURVE SMOOTH",
"434 370 OFFCURVE",
"366 475 OFFCURVE",
"295 536 QCURVE",
"293 536 LINE",
"245 495 OFFCURVE",
"183 423 OFFCURVE",
"154 347 OFFCURVE",
"154 300 QCURVE SMOOTH",
"154 252 OFFCURVE",
"184 176 OFFCURVE",
"245 105 OFFCURVE",
"293 64 QCURVE"
);
}
);
width = 589;
}
);
unicode = 10CEC;
},
{
glyphname = u10CED;
layers = (
{
layerId = "2D854B59-3A96-4021-89E9-F3E1522D96CD";
paths = (
{
closed = 1;
nodes = (
"404 0 LINE",
"404 354 LINE",
"170 169 LINE",
"86 169 LINE",
"86 600 LINE",
"173 600 LINE",
"173 272 LINE",
"406 457 LINE",
"491 457 LINE",
"491 0 LINE"
);
}
);
width = 577;
}
);
unicode = 10CED;
},
{
glyphname = u10CEE;
layers = (
{
layerId = "2D854B59-3A96-4021-89E9-F3E1522D96CD";
paths = (
{
closed = 1;
nodes = (
"95 0 LINE",
"95 600 LINE",
"172 600 LINE",
"331 486 LINE",
"488 600 LINE",
"567 600 LINE",
"567 0 LINE",
"482 0 LINE",
"482 499 LINE",
"331 394 LINE",
"180 499 LINE",
"180 0 LINE"
);
}
);
width = 662;
}
);
unicode = 10CEE;
},
{
glyphname = u10CEF;
layers = (
{
layerId = "2D854B59-3A96-4021-89E9-F3E1522D96CD";
paths = (
{
closed = 1;
nodes = (
"95 0 LINE",
"95 600 LINE",
"180 600 LINE",
"180 427 LINE",
"435 600 LINE",
"520 600 LINE",
"520 0 LINE",
"435 0 LINE",
"435 173 LINE",
"180 0 LINE"
);
},
{
closed = 1;
nodes = (
"180 254 LINE",
"435 427 LINE",
"435 519 LINE",
"180 346 LINE"
);
},
{
closed = 1;
nodes = (
"180 81 LINE",
"435 254 LINE",
"435 346 LINE",
"180 173 LINE"
);
}
);
width = 615;
}
);
unicode = 10CEF;
},
{
glyphname = u10CF0;
layers = (
{
layerId = "2D854B59-3A96-4021-89E9-F3E1522D96CD";
paths = (
{
closed = 1;
nodes = (
"267 0 LINE",
"267 261 LINE",
"12 570 LINE",
"81 617 LINE",
"267 386 LINE",
"267 600 LINE",
"354 600 LINE",
"354 386 LINE",
"542 617 LINE",
"610 570 LINE",
"354 261 LINE",
"354 0 LINE"
);
}
);
width = 622;
}
);
unicode = 10CF0;
},
{
glyphname = u10CF1;
layers = (
{
layerId = "2D854B59-3A96-4021-89E9-F3E1522D96CD";
paths = (
{
closed = 1;
nodes = (
"310 0 LINE",
"166 152 LINE",
"77 85 LINE",
"30 140 LINE",
"169 246 LINE",
"310 98 LINE",
"310 192 LINE",
"166 336 LINE",
"77 268 LINE",
"30 324 LINE",
"169 429 LINE",
"310 285 LINE",
"310 375 LINE",
"166 519 LINE",
"77 452 LINE",
"30 507 LINE",
"169 613 LINE",
"310 469 LINE",
"310 600 LINE",
"395 600 LINE",
"395 469 LINE",
"537 613 LINE",
"676 507 LINE",
"629 452 LINE",
"540 519 LINE",
"395 375 LINE",
"395 285 LINE",
"537 429 LINE",
"676 324 LINE",
"629 268 LINE",
"540 336 LINE",
"395 192 LINE",
"395 98 LINE",
"537 246 LINE",
"676 140 LINE",
"629 85 LINE",
"540 152 LINE",
"395 0 LINE"
);
}
);
width = 706;
}
);
unicode = 10CF1;
},
{
glyphname = u10CF2;
layers = (
{
layerId = "2D854B59-3A96-4021-89E9-F3E1522D96CD";
paths = (
{
closed = 1;
nodes = (
"243 0 LINE",
"158 64 OFFCURVE",
"55 206 OFFCURVE",
"55 300 QCURVE SMOOTH",
"55 394 OFFCURVE",
"158 536 OFFCURVE",
"243 600 QCURVE",
"312 600 LINE",
"397 536 OFFCURVE",
"501 394 OFFCURVE",
"501 300 QCURVE SMOOTH",
"501 206 OFFCURVE",
"397 64 OFFCURVE",
"312 0 QCURVE"
);
},
{
closed = 1;
nodes = (
"240 503 LINE",
"187 454 OFFCURVE",
"138 360 OFFCURVE",
"138 300 QCURVE SMOOTH",
"138 239 OFFCURVE",
"188 146 OFFCURVE",
"240 97 QCURVE"
);
},
{
closed = 1;
nodes = (
"317 98 LINE",
"369 147 OFFCURVE",
"418 239 OFFCURVE",
"418 300 QCURVE SMOOTH",
"418 360 OFFCURVE",
"369 453 OFFCURVE",
"317 502 QCURVE"
);
}
);
width = 556;
}
);
unicode = 10CF2;
},
{
glyphname = u10CFA;
layers = (
{
layerId = "2D854B59-3A96-4021-89E9-F3E1522D96CD";
paths = (
{
closed = 1;
nodes = (
"95 0 LINE",
"95 801 LINE",
"182 801 LINE",
"182 0 LINE"
);
}
);
width = 277;
}
);
unicode = 10CFA;
},
{
glyphname = u10CFB;
layers = (
{
layerId = "2D854B59-3A96-4021-89E9-F3E1522D96CD";
paths = (
{
closed = 1;
nodes = (
"248 0 LINE",
"5 800 LINE",
"94 800 LINE",
"241 298 LINE SMOOTH",
"253 257 OFFCURVE",
"265 209 QCURVE SMOOTH",
"275 168 OFFCURVE",
"281 135 QCURVE",
"285 135 LINE",
"284 140 OFFCURVE",
"300 206 QCURVE",
"305 222 OFFCURVE",
"327 298 QCURVE SMOOTH",
"474 800 LINE",
"561 800 LINE",
"319 0 LINE"
);
}
);
width = 566;
}
);
unicode = 10CFB;
},
{
glyphname = u10CFC;
layers = (
{
layerId = "2D854B59-3A96-4021-89E9-F3E1522D96CD";
paths = (
{
closed = 1;
nodes = (
"4 -4 LINE",
"286 417 LINE",
"22 802 LINE",
"132 802 LINE",
"346 479 LINE",
"563 802 LINE",
"667 802 LINE",
"404 418 LINE",
"687 -4 LINE",
"575 -4 LINE",
"343 352 LINE",
"108 -4 LINE"
);
}
);
width = 691;
}
);
unicode = 10CFC;
},
{
glyphname = u10CFD;
layers = (
{
layerId = "2D854B59-3A96-4021-89E9-F3E1522D96CD";
paths = (
{
closed = 1;
nodes = (
"237 0 LINE",
"2 780 LINE",
"94 780 LINE",
"215 344 LINE SMOOTH",
"223 315 OFFCURVE",
"237 263 OFFCURVE",
"243 238 QCURVE",
"240 780 LINE",
"327 780 LINE",
"324 237 LINE",
"330 260 OFFCURVE",
"337 288 QCURVE SMOOTH",
"344 314 OFFCURVE",
"352 344 QCURVE SMOOTH",
"474 780 LINE",
"564 780 LINE",
"330 0 LINE"
);
}
);
width = 566;
}
);
unicode = 10CFD;
},
{
glyphname = u10CFE;
layers = (
{
layerId = "2D854B59-3A96-4021-89E9-F3E1522D96CD";
paths = (
{
closed = 1;
nodes = (
"392 542 LINE",
"563 802 LINE",
"667 802 LINE",
"404 418 LINE",
"687 -4 LINE",
"575 -4 LINE",
"392 276 LINE",
"392 0 LINE",
"305 0 LINE",
"305 297 LINE",
"108 -4 LINE",
"4 -4 LINE",
"286 417 LINE",
"22 802 LINE",
"132 802 LINE",
"305 537 LINE",
"305 801 LINE",
"392 801 LINE"
);
}
);
width = 691;
}
);
unicode = 10CFE;
},
{
glyphname = u10CFF;
layers = (
{
layerId = "2D854B59-3A96-4021-89E9-F3E1522D96CD";
paths = (
{
closed = 1;
nodes = (
"434 369 LINE",
"687 -4 LINE",
"575 -4 LINE",
"392 276 LINE",
"392 0 LINE",
"305 0 LINE",
"305 297 LINE",
"108 -4 LINE",
"4 -4 LINE",
"250 365 LINE",
"26 365 LINE",
"23 485 LINE",
"241 483 LINE",
"22 802 LINE",
"132 802 LINE",
"305 537 LINE",
"305 801 LINE",
"392 801 LINE",
"392 542 LINE",
"563 802 LINE",
"667 802 LINE",
"444 480 LINE",
"663 482 LINE",
"666 369 LINE"
);
}
);
width = 691;
}
);
unicode = 10CFF;
},
{
glyphname = uni10C80.ltr;
layers = (
{
layerId = "2D854B59-3A96-4021-89E9-F3E1522D96CD";
paths = (
{
closed = 1;
nodes = (
"129 -4 LINE",
"129 799 LINE",
"226 799 LINE",
"519 574 LINE",
"519 445 LINE",
"219 444 LINE",
"219 -4 LINE"
);
},
{
closed = 1;
nodes = (
"219 523 LINE",
"437 522 LINE",
"219 709 LINE"
);
}
);
width = 529;
}
);
},
{
glyphname = uni10C81.ltr;
layers = (
{
layerId = "2D854B59-3A96-4021-89E9-F3E1522D96CD";
paths = (
{
closed = 1;
nodes = (
"129 2 LINE",
"129 799 LINE",
"222 799 LINE",
"506 540 LINE",
"506 469 LINE",
"219 239 LINE",
"219 2 LINE"
);
},
{
closed = 1;
nodes = (
"219 347 LINE",
"422 505 LINE",
"219 700 LINE"
);
}
);
width = 529;
}
);
},
{
glyphname = uni10C82.ltr;
layers = (
{
layerId = "2D854B59-3A96-4021-89E9-F3E1522D96CD";
paths = (
{
closed = 1;
nodes = (
"4 2 LINE",
"287 421 LINE",
"24 802 LINE",
"128 802 LINE",
"345 482 LINE",
"559 802 LINE",
"669 802 LINE",
"405 419 LINE",
"687 2 LINE",
"583 2 LINE",
"348 355 LINE",
"116 2 LINE"
);
}
);
width = 691;
}
);
},
{
glyphname = uni10C83.ltr;
layers = (
{
layerId = "2D854B59-3A96-4021-89E9-F3E1522D96CD";
paths = (
{
closed = 1;
nodes = (
"461 -4 LINE",
"427 22 OFFCURVE",
"366 74 OFFCURVE",
"340 101 QCURVE",
"253 -3 LINE",
"55 81 LINE",
"87 152 LINE",
"227 88 LINE",
"287 164 LINE",
"250 216 OFFCURVE",
"209 333 OFFCURVE",
"209 401 QCURVE SMOOTH",
"209 468 OFFCURVE",
"250 586 OFFCURVE",
"287 638 QCURVE",
"227 714 LINE",
"87 650 LINE",
"55 722 LINE",
"253 805 LINE",
"340 701 LINE",
"366 729 OFFCURVE",
"427 780 OFFCURVE",
"461 806 QCURVE",
"555 806 LINE",
"590 780 OFFCURVE",
"651 727 OFFCURVE",
"677 699 QCURVE",
"767 805 LINE",
"963 722 LINE",
"933 650 LINE",
"792 714 LINE",
"730 636 LINE",
"767 584 OFFCURVE",
"807 468 OFFCURVE",
"807 401 QCURVE SMOOTH",
"807 334 OFFCURVE",
"767 218 OFFCURVE",
"730 167 QCURVE",
"792 88 LINE",
"933 152 LINE",
"963 81 LINE",
"767 -3 LINE",
"677 103 LINE",
"651 76 OFFCURVE",
"589 23 OFFCURVE",
"554 -4 QCURVE"
);
},
{
closed = 1;
nodes = (
"510 65 LINE",
"579 122 OFFCURVE",
"669 224 OFFCURVE",
"714 334 OFFCURVE",
"714 401 QCURVE SMOOTH",
"714 468 OFFCURVE",
"669 578 OFFCURVE",
"579 681 OFFCURVE",
"510 738 QCURVE",
"506 738 LINE",
"437 681 OFFCURVE",
"347 578 OFFCURVE",
"302 468 OFFCURVE",
"302 401 QCURVE SMOOTH",
"302 334 OFFCURVE",
"347 224 OFFCURVE",
"437 122 OFFCURVE",
"506 65 QCURVE"
);
}
);
width = 1018;
}
);
},
{
glyphname = uni10C84.ltr;
layers = (
{
layerId = "2D854B59-3A96-4021-89E9-F3E1522D96CD";
paths = (
{
closed = 1;
nodes = (
"265 -2 LINE",
"265 686 LINE",
"83 532 LINE",
"24 592 LINE",
"273 804 LINE",
"347 804 LINE",
"596 592 LINE",
"537 532 LINE",
"355 686 LINE",
"355 -2 LINE"
);
}
);
width = 620;
}
);
},
{
glyphname = uni10C85.ltr;
layers = (
{
layerId = "2D854B59-3A96-4021-89E9-F3E1522D96CD";
paths = (
{
closed = 1;
nodes = (
"273 -2 LINE",
"24 209 LINE",
"83 270 LINE",
"265 115 LINE",
"265 685 LINE",
"83 530 LINE",
"31 591 LINE",
"273 802 LINE",
"347 802 LINE",
"589 591 LINE",
"537 530 LINE",
"355 685 LINE",
"355 115 LINE",
"537 270 LINE",
"596 209 LINE",
"347 -2 LINE"
);
}
);
width = 620;
}
);
},
{
glyphname = uni10C86.ltr;
layers = (
{
layerId = "2D854B59-3A96-4021-89E9-F3E1522D96CD";
paths = (
{
closed = 1;
nodes = (
"124 0 LINE",
"124 799 LINE",
"211 799 LINE",
"618 556 LINE",
"618 799 LINE",
"708 799 LINE",
"708 0 LINE",
"621 0 LINE",
"214 244 LINE",
"214 0 LINE"
);
},
{
closed = 1;
nodes = (
"618 99 LINE",
"618 463 LINE",
"214 705 LINE",
"214 335 LINE"
);
}
);
width = 832;
}
);
},
{
glyphname = uni10C87.ltr;
layers = (
{
layerId = "2D854B59-3A96-4021-89E9-F3E1522D96CD";
paths = (
{
closed = 1;
nodes = (
"266 0 LINE",
"266 397 LINE",
"58 503 LINE",
"97 573 LINE",
"266 484 LINE",
"266 802 LINE",
"362 802 LINE",
"362 436 LINE",
"570 332 LINE",
"531 264 LINE",
"362 350 LINE",
"362 0 LINE"
);
}
);
width = 627;
}
);
},
{
glyphname = uni10C88.ltr;
layers = (
{
layerId = "2D854B59-3A96-4021-89E9-F3E1522D96CD";
paths = (
{
closed = 1;
nodes = (
"4 0 LINE",
"277 404 LINE",
"39 470 LINE",
"55 535 LINE",
"243 483 LINE",
"24 799 LINE",
"128 799 LINE",
"345 479 LINE",
"559 799 LINE",
"669 799 LINE",
"417 434 LINE",
"661 366 LINE",
"637 303 LINE",
"446 357 LINE",
"687 0 LINE",
"583 0 LINE",
"348 353 LINE",
"116 0 LINE"
);
}
);
width = 691;
}
);
},
{
glyphname = uni10C89.ltr;
layers = (
{
layerId = "2D854B59-3A96-4021-89E9-F3E1522D96CD";
paths = (
{
closed = 1;
nodes = (
"426 -17 LINE",
"379 11 OFFCURVE",
"300 64 OFFCURVE",
"268 89 QCURVE",
"145 -10 LINE",
"96 49 LINE",
"209 141 LINE",
"147 201 OFFCURVE",
"95 326 OFFCURVE",
"95 401 QCURVE SMOOTH",
"95 476 OFFCURVE",
"148 602 OFFCURVE",
"211 664 QCURVE",
"96 757 LINE",
"145 816 LINE",
"270 716 LINE",
"301 741 OFFCURVE",
"376 792 OFFCURVE",
"421 819 QCURVE",
"482 757 LINE",
"439 730 OFFCURVE",
"368 682 OFFCURVE",
"339 660 QCURVE",
"465 559 LINE",
"410 503 LINE",
"280 608 LINE",
"230 559 OFFCURVE",
"189 461 OFFCURVE",
"189 401 QCURVE SMOOTH",
"189 341 OFFCURVE",
"230 242 OFFCURVE",
"276 195 QCURVE",
"410 303 LINE",
"465 248 LINE",
"335 143 LINE",
"364 121 OFFCURVE",
"434 74 OFFCURVE",
"477 49 QCURVE"
);
}
);
width = 563;
}
);
},
{
glyphname = uni10C8A.ltr;
layers = (
{
layerId = "2D854B59-3A96-4021-89E9-F3E1522D96CD";
paths = (
{
closed = 1;
nodes = (
"98 56 LINE",
"136 78 OFFCURVE",
"200 117 OFFCURVE",
"227 136 QCURVE",
"160 197 OFFCURVE",
"102 321 OFFCURVE",
"102 395 QCURVE SMOOTH",
"102 469 OFFCURVE",
"159 593 OFFCURVE",
"226 653 QCURVE",
"198 674 OFFCURVE",
"132 716 OFFCURVE",
"93 739 QCURVE",
"154 799 LINE",
"236 751 OFFCURVE",
"293 709 QCURVE",
"350 751 OFFCURVE",
"432 799 QCURVE",
"493 739 LINE",
"454 717 OFFCURVE",
"388 674 OFFCURVE",
"361 654 QCURVE",
"427 593 OFFCURVE",
"484 470 OFFCURVE",
"484 395 QCURVE SMOOTH",
"484 321 OFFCURVE",
"427 197 OFFCURVE",
"359 136 QCURVE",
"386 117 OFFCURVE",
"451 77 OFFCURVE",
"488 56 QCURVE",
"436 -8 LINE",
"395 16 OFFCURVE",
"323 61 OFFCURVE",
"293 83 QCURVE",
"263 61 OFFCURVE",
"191 16 OFFCURVE",
"150 -8 QCURVE"
);
},
{
closed = 1;
nodes = (
"345 237 OFFCURVE",
"390 336 OFFCURVE",
"390 395 QCURVE SMOOTH",
"390 454 OFFCURVE",
"346 551 OFFCURVE",
"293 599 QCURVE",
"240 550 OFFCURVE",
"196 454 OFFCURVE",
"196 395 QCURVE SMOOTH",
"196 336 OFFCURVE",
"241 237 OFFCURVE",
"293 189 QCURVE"
);
}
);
width = 586;
}
);
},
{
glyphname = uni10C8B.ltr;
layers = (
{
layerId = "2D854B59-3A96-4021-89E9-F3E1522D96CD";
paths = (
{
closed = 1;
nodes = (
"232 -21 LINE",
"174 42 LINE",
"281 124 LINE",
"175 191 OFFCURVE",
"82 322 OFFCURVE",
"82 403 QCURVE SMOOTH",
"82 485 OFFCURVE",
"175 616 OFFCURVE",
"281 683 QCURVE",
"174 765 LINE",
"232 827 LINE",
"424 675 LINE",
"338 627 OFFCURVE",
"228 544 OFFCURVE",
"176 457 OFFCURVE",
"176 403 QCURVE SMOOTH",
"176 350 OFFCURVE",
"229 263 OFFCURVE",
"339 179 OFFCURVE",
"424 132 QCURVE"
);
}
);
width = 512;
}
);
},
{
glyphname = uni10C8C.ltr;
layers = (
{
layerId = "2D854B59-3A96-4021-89E9-F3E1522D96CD";
paths = (
{
closed = 1;
nodes = (
"338 -2 LINE",
"259 57 OFFCURVE",
"144 178 OFFCURVE",
"82 316 OFFCURVE",
"82 400 QCURVE SMOOTH",
"82 484 OFFCURVE",
"144 622 OFFCURVE",
"259 744 OFFCURVE",
"338 802 QCURVE",
"432 802 LINE",
"512 744 OFFCURVE",
"626 622 OFFCURVE",
"688 484 OFFCURVE",
"688 400 QCURVE SMOOTH",
"688 316 OFFCURVE",
"626 178 OFFCURVE",
"511 57 OFFCURVE",
"431 -2 QCURVE"
);
},
{
closed = 1;
nodes = (
"383 450 LINE",
"522 606 LINE",
"473 667 OFFCURVE",
"387 735 QCURVE",
"383 735 LINE",
"340 700 OFFCURVE",
"272 636 OFFCURVE",
"247 604 QCURVE"
);
},
{
closed = 1;
nodes = (
"559 251 LINE",
"577 285 OFFCURVE",
"595 358 OFFCURVE",
"595 400 QCURVE SMOOTH",
"595 481 OFFCURVE",
"560 547 QCURVE",
"430 398 LINE"
);
},
{
closed = 1;
nodes = (
"337 398 LINE",
"209 544 LINE",
"175 480 OFFCURVE",
"175 400 QCURVE SMOOTH",
"175 319 OFFCURVE",
"209 254 QCURVE"
);
},
{
closed = 1;
nodes = (
"387 66 LINE",
"428 99 OFFCURVE",
"493 161 OFFCURVE",
"518 190 QCURVE",
"383 345 LINE",
"250 193 LINE",
"275 162 OFFCURVE",
"341 99 OFFCURVE",
"383 66 QCURVE"
);
}
);
width = 769;
}
);
},
{
glyphname = uni10C8D.ltr;
layers = (
{
layerId = "2D854B59-3A96-4021-89E9-F3E1522D96CD";
paths = (
{
closed = 1;
nodes = (
"21 0 LINE",
"354 806 LINE",
"441 806 LINE",
"780 0 LINE",
"680 0 LINE",
"468 518 LINE SMOOTH",
"447 570 OFFCURVE",
"413 660 OFFCURVE",
"402 700 QCURVE",
"398 700 LINE",
"388 660 OFFCURVE",
"354 572 OFFCURVE",
"333 520 QCURVE SMOOTH",
"321 492 LINE",
"515 0 LINE",
"421 0 LINE",
"277 384 LINE",
"120 0 LINE"
);
}
);
width = 801;
}
);
},
{
glyphname = uni10C8E.ltr;
layers = (
{
layerId = "2D854B59-3A96-4021-89E9-F3E1522D96CD";
paths = (
{
closed = 1;
nodes = (
"263 0 LINE",
"263 251 LINE",
"55 357 LINE",
"94 427 LINE",
"263 341 LINE",
"263 494 LINE",
"55 600 LINE",
"94 670 LINE",
"263 584 LINE",
"263 802 LINE",
"359 802 LINE",
"359 535 LINE",
"567 428 LINE",
"528 360 LINE",
"359 446 LINE",
"359 292 LINE",
"567 185 LINE",
"528 117 LINE",
"359 203 LINE",
"359 0 LINE"
);
}
);
width = 624;
}
);
},
{
glyphname = uni10C8F.ltr;
layers = (
{
layerId = "2D854B59-3A96-4021-89E9-F3E1522D96CD";
paths = (
{
closed = 1;
nodes = (
"65 -2 LINE",
"296 201 LINE",
"51 418 LINE",
"296 618 LINE",
"65 808 LINE",
"187 808 LINE",
"356 667 LINE",
"526 808 LINE",
"646 808 LINE",
"415 618 LINE",
"659 418 LINE",
"415 201 LINE",
"646 -2 LINE",
"524 -2 LINE",
"356 150 LINE",
"187 -2 LINE"
);
},
{
closed = 1;
nodes = (
"356 257 LINE",
"536 419 LINE",
"356 568 LINE",
"176 419 LINE"
);
}
);
width = 710;
}
);
},
{
glyphname = uni10C90.ltr;
layers = (
{
layerId = "2D854B59-3A96-4021-89E9-F3E1522D96CD";
paths = (
{
closed = 1;
nodes = (
"266 0 LINE",
"266 495 LINE",
"58 601 LINE",
"97 671 LINE",
"266 585 LINE",
"266 804 LINE",
"362 804 LINE",
"362 536 LINE",
"570 429 LINE",
"531 361 LINE",
"362 447 LINE",
"362 0 LINE"
);
}
);
width = 627;
}
);
},
{
glyphname = uni10C91.ltr;
layers = (
{
layerId = "2D854B59-3A96-4021-89E9-F3E1522D96CD";
paths = (
{
closed = 1;
nodes = (
"253 2 LINE",
"253 700 LINE",
"58 790 LINE",
"97 854 LINE",
"570 633 LINE",
"531 571 LINE",
"349 656 LINE",
"349 2 LINE"
);
}
);
width = 627;
}
);
},
{
glyphname = uni10C92.ltr;
layers = (
{
layerId = "2D854B59-3A96-4021-89E9-F3E1522D96CD";
paths = (
{
closed = 1;
nodes = (
"134 -2 LINE",
"134 806 LINE",
"210 806 LINE",
"516 520 LINE",
"461 462 LINE",
"223 686 LINE",
"223 -2 LINE"
);
}
);
width = 547;
}
);
},
{
glyphname = uni10C93.ltr;
layers = (
{
layerId = "2D854B59-3A96-4021-89E9-F3E1522D96CD";
paths = (
{
closed = 1;
nodes = (
"295 -4 LINE",
"55 404 LINE",
"295 802 LINE",
"387 802 LINE",
"628 404 LINE",
"387 -4 LINE"
);
},
{
closed = 1;
nodes = (
"341 78 LINE",
"528 404 LINE",
"341 721 LINE",
"156 404 LINE"
);
}
);
width = 684;
}
);
},
{
glyphname = uni10C94.ltr;
layers = (
{
layerId = "2D854B59-3A96-4021-89E9-F3E1522D96CD";
paths = (
{
closed = 1;
nodes = (
"266 -2 LINE",
"17 210 LINE",
"76 270 LINE",
"258 115 LINE",
"258 804 LINE",
"340 804 LINE",
"589 592 LINE",
"530 532 LINE",
"348 686 LINE",
"348 -2 LINE"
);
}
);
width = 613;
}
);
},
{
glyphname = uni10C95.ltr;
layers = (
{
layerId = "2D854B59-3A96-4021-89E9-F3E1522D96CD";
paths = (
{
closed = 1;
nodes = (
"240 -17 LINE",
"33 74 LINE",
"66 139 LINE",
"200 76 LINE",
"408 401 LINE",
"206 715 LINE",
"72 654 LINE",
"39 717 LINE",
"246 810 LINE",
"454 477 LINE",
"661 810 LINE",
"869 717 LINE",
"835 654 LINE",
"702 715 LINE",
"499 401 LINE",
"708 76 LINE",
"841 139 LINE",
"875 74 LINE",
"667 -17 LINE",
"454 325 LINE"
);
}
);
width = 907;
}
);
},
{
glyphname = uni10C96.ltr;
layers = (
{
layerId = "2D854B59-3A96-4021-89E9-F3E1522D96CD";
paths = (
{
closed = 1;
nodes = (
"17 0 LINE",
"355 802 LINE",
"441 802 LINE",
"783 0 LINE",
"683 0 LINE",
"469 518 LINE SMOOTH",
"448 569 OFFCURVE",
"413 658 OFFCURVE",
"401 696 QCURVE",
"397 696 LINE",
"386 659 OFFCURVE",
"356 580 OFFCURVE",
"338 534 QCURVE",
"559 0 LINE",
"469 0 LINE",
"292 424 LINE",
"232 279 LINE",
"348 0 LINE",
"260 0 LINE",
"188 174 LINE",
"116 0 LINE"
);
}
);
width = 801;
}
);
},
{
glyphname = uni10C97.ltr;
layers = (
{
layerId = "2D854B59-3A96-4021-89E9-F3E1522D96CD";
paths = (
{
closed = 1;
nodes = (
"337 0 LINE",
"260 59 OFFCURVE",
"146 180 OFFCURVE",
"85 319 OFFCURVE",
"85 403 QCURVE SMOOTH",
"85 487 OFFCURVE",
"146 626 OFFCURVE",
"260 748 OFFCURVE",
"337 806 QCURVE",
"431 806 LINE",
"509 748 OFFCURVE",
"622 626 OFFCURVE",
"683 487 OFFCURVE",
"683 403 QCURVE SMOOTH",
"683 319 OFFCURVE",
"622 180 OFFCURVE",
"508 59 OFFCURVE",
"430 0 QCURVE"
);
},
{
closed = 1;
nodes = (
"560 264 LINE",
"590 327 OFFCURVE",
"590 403 QCURVE SMOOTH",
"590 470 OFFCURVE",
"545 579 OFFCURVE",
"455 682 OFFCURVE",
"386 739 QCURVE",
"382 739 LINE",
"340 703 OFFCURVE",
"274 640 OFFCURVE",
"249 609 QCURVE"
);
},
{
closed = 1;
nodes = (
"386 68 LINE",
"427 103 OFFCURVE",
"493 166 OFFCURVE",
"518 198 QCURVE",
"210 545 LINE",
"178 483 OFFCURVE",
"178 403 QCURVE SMOOTH",
"178 336 OFFCURVE",
"223 227 OFFCURVE",
"313 125 OFFCURVE",
"382 68 QCURVE"
);
}
);
width = 768;
}
);
},
{
glyphname = uni10C98.ltr;
layers = (
{
layerId = "2D854B59-3A96-4021-89E9-F3E1522D96CD";
paths = (
{
closed = 1;
nodes = (
"130 -6 LINE",
"130 808 LINE",
"225 808 LINE",
"555 627 LINE",
"555 542 LINE",
"339 404 LINE",
"555 267 LINE",
"555 184 LINE",
"225 -6 LINE"
);
},
{
closed = 1;
nodes = (
"220 421 LINE",
"471 583 LINE",
"220 720 LINE"
);
},
{
closed = 1;
nodes = (
"220 90 LINE",
"471 230 LINE",
"220 389 LINE"
);
}
);
width = 627;
}
);
},
{
glyphname = uni10C99.ltr;
layers = (
{
layerId = "2D854B59-3A96-4021-89E9-F3E1522D96CD";
paths = (
{
closed = 1;
nodes = (
"420 -17 LINE",
"296 57 OFFCURVE",
"150 186 OFFCURVE",
"86 320 OFFCURVE",
"86 400 QCURVE SMOOTH",
"86 479 OFFCURVE",
"149 613 OFFCURVE",
"294 744 OFFCURVE",
"415 817 QCURVE",
"476 755 LINE",
"392 704 OFFCURVE",
"278 616 OFFCURVE",
"210 535 OFFCURVE",
"180 450 OFFCURVE",
"180 400 QCURVE SMOOTH",
"180 332 OFFCURVE",
"236 220 OFFCURVE",
"364 112 OFFCURVE",
"471 49 QCURVE"
);
}
);
width = 538;
}
);
},
{
glyphname = uni10C9A.ltr;
layers = (
{
layerId = "2D854B59-3A96-4021-89E9-F3E1522D96CD";
paths = (
{
closed = 1;
nodes = (
"421 -2 LINE",
"297 61 OFFCURVE",
"145 184 OFFCURVE",
"76 319 OFFCURVE",
"76 398 QCURVE SMOOTH",
"76 476 OFFCURVE",
"146 610 OFFCURVE",
"298 736 OFFCURVE",
"421 799 QCURVE",
"511 799 LINE",
"511 -2 LINE"
);
},
{
closed = 1;
nodes = (
"421 708 LINE",
"330 657 OFFCURVE",
"219 562 OFFCURVE",
"170 460 OFFCURVE",
"170 398 QCURVE SMOOTH",
"170 336 OFFCURVE",
"221 232 OFFCURVE",
"332 139 OFFCURVE",
"421 90 QCURVE"
);
}
);
width = 633;
}
);
},
{
glyphname = uni10C9B.ltr;
layers = (
{
layerId = "2D854B59-3A96-4021-89E9-F3E1522D96CD";
paths = (
{
closed = 1;
nodes = (
"343 -15 LINE",
"253 50 OFFCURVE",
"134 172 OFFCURVE",
"75 310 OFFCURVE",
"75 397 QCURVE SMOOTH",
"75 478 OFFCURVE",
"127 612 OFFCURVE",
"245 744 OFFCURVE",
"343 819 QCURVE",
"579 614 LINE",
"517 557 LINE",
"345 706 LINE",
"280 653 OFFCURVE",
"202 558 OFFCURVE",
"169 459 OFFCURVE",
"169 397 QCURVE SMOOTH",
"169 333 OFFCURVE",
"202 229 OFFCURVE",
"275 137 OFFCURVE",
"335 88 QCURVE",
"517 247 LINE",
"579 190 LINE"
);
}
);
width = 634;
}
);
},
{
glyphname = uni10C9C.ltr;
layers = (
{
layerId = "2D854B59-3A96-4021-89E9-F3E1522D96CD";
paths = (
{
closed = 1;
nodes = (
"347 -15 LINE",
"257 52 OFFCURVE",
"138 176 OFFCURVE",
"79 312 OFFCURVE",
"79 393 QCURVE SMOOTH",
"79 472 OFFCURVE",
"131 606 OFFCURVE",
"249 741 OFFCURVE",
"347 819 QCURVE",
"407 749 LINE",
"320 680 OFFCURVE",
"219 569 OFFCURVE",
"176 459 OFFCURVE",
"176 393 QCURVE SMOOTH",
"176 307 OFFCURVE",
"251 167 OFFCURVE",
"339 92 QCURVE",
"500 243 LINE",
"357 387 LINE",
"417 445 LINE",
"621 235 LINE"
);
}
);
width = 658;
}
);
},
{
glyphname = uni10C9D.ltr;
layers = (
{
layerId = "2D854B59-3A96-4021-89E9-F3E1522D96CD";
paths = (
{
closed = 1;
nodes = (
"146 -6 LINE",
"83 56 LINE",
"292 281 LINE",
"71 524 LINE",
"342 804 LINE",
"406 742 LINE",
"189 520 LINE",
"411 277 LINE"
);
}
);
width = 482;
}
);
},
{
glyphname = uni10C9E.ltr;
layers = (
{
layerId = "2D854B59-3A96-4021-89E9-F3E1522D96CD";
paths = (
{
closed = 1;
nodes = (
"18 0 LINE",
"307 410 LINE",
"27 797 LINE",
"136 797 LINE",
"411 406 LINE",
"411 797 LINE",
"501 797 LINE",
"501 0 LINE",
"411 0 LINE",
"411 405 LINE",
"132 0 LINE"
);
}
);
width = 624;
}
);
},
{
glyphname = uni10C9F.ltr;
layers = (
{
layerId = "2D854B59-3A96-4021-89E9-F3E1522D96CD";
paths = (
{
closed = 1;
nodes = (
"413 -6 LINE",
"358 34 OFFCURVE",
"270 109 OFFCURVE",
"238 148 QCURVE",
"145 72 LINE",
"97 122 LINE",
"197 203 LINE",
"145 287 OFFCURVE",
"145 389 QCURVE SMOOTH",
"145 442 OFFCURVE",
"169 536 OFFCURVE",
"196 580 QCURVE",
"100 658 LINE",
"148 710 LINE",
"236 638 LINE",
"268 677 OFFCURVE",
"355 757 OFFCURVE",
"413 802 QCURVE",
"473 735 LINE",
"416 691 OFFCURVE",
"334 616 OFFCURVE",
"306 581 QCURVE",
"360 538 LINE",
"312 487 LINE",
"268 522 LINE",
"239 461 OFFCURVE",
"239 389 QCURVE SMOOTH",
"239 320 OFFCURVE",
"266 260 QCURVE",
"312 298 LINE",
"360 247 LINE",
"303 200 LINE",
"322 175 OFFCURVE",
"373 125 OFFCURVE",
"404 99 QCURVE",
"561 241 LINE",
"419 381 LINE",
"483 439 LINE",
"687 237 LINE",
"682 234 LINE",
"685 233 LINE"
);
}
);
width = 724;
}
);
},
{
glyphname = uni10CA0.ltr;
layers = (
{
layerId = "2D854B59-3A96-4021-89E9-F3E1522D96CD";
paths = (
{
closed = 1;
nodes = (
"462 -17 LINE",
"217 205 LINE",
"217 3 LINE",
"127 3 LINE",
"127 799 LINE",
"208 799 LINE",
"517 520 LINE",
"462 469 LINE",
"217 692 LINE",
"217 548 LINE",
"517 277 LINE",
"462 225 LINE",
"217 448 LINE",
"217 304 LINE",
"517 35 LINE"
);
}
);
width = 578;
}
);
},
{
glyphname = uni10CA1.ltr;
layers = (
{
layerId = "2D854B59-3A96-4021-89E9-F3E1522D96CD";
paths = (
{
closed = 1;
nodes = (
"235 -34 LINE",
"171 23 LINE",
"307 152 LINE",
"242 233 OFFCURVE",
"223 323 QCURVE",
"88 246 LINE",
"46 320 LINE",
"215 407 LINE",
"216 466 OFFCURVE",
"249 583 OFFCURVE",
"295 639 QCURVE",
"292 642 LINE",
"160 577 LINE",
"121 652 LINE",
"464 804 LINE",
"563 804 LINE",
"906 652 LINE",
"867 577 LINE",
"736 642 LINE",
"734 638 LINE",
"780 582 OFFCURVE",
"818 466 OFFCURVE",
"819 407 QCURVE",
"988 320 LINE",
"947 246 LINE",
"812 323 LINE",
"802 277 OFFCURVE",
"759 192 OFFCURVE",
"727 152 QCURVE",
"857 23 LINE",
"792 -34 LINE",
"673 92 LINE",
"648 68 OFFCURVE",
"593 23 OFFCURVE",
"562 -1 QCURVE",
"464 -1 LINE",
"434 23 OFFCURVE",
"385 68 OFFCURVE",
"360 92 QCURVE"
);
},
{
closed = 1;
nodes = (
"514 67 LINE",
"612 140 OFFCURVE",
"722 301 OFFCURVE",
"722 407 QCURVE SMOOTH",
"722 509 OFFCURVE",
"620 671 OFFCURVE",
"514 732 QCURVE",
"510 732 LINE",
"404 671 OFFCURVE",
"302 509 OFFCURVE",
"302 407 QCURVE SMOOTH",
"302 301 OFFCURVE",
"411 140 OFFCURVE",
"510 67 QCURVE"
);
}
);
width = 1027;
}
);
},
{
glyphname = uni10CA2.ltr;
layers = (
{
layerId = "2D854B59-3A96-4021-89E9-F3E1522D96CD";
paths = (
{
closed = 1;
nodes = (
"129 0 LINE",
"129 802 LINE",
"219 802 LINE",
"219 572 LINE",
"612 324 LINE",
"612 802 LINE",
"702 802 LINE",
"702 0 LINE",
"612 0 LINE",
"612 235 LINE",
"219 479 LINE",
"219 0 LINE"
);
}
);
width = 832;
}
);
},
{
glyphname = uni10CA3.ltr;
layers = (
{
layerId = "2D854B59-3A96-4021-89E9-F3E1522D96CD";
paths = (
{
closed = 1;
nodes = (
"520 197 LINE",
"57 470 LINE",
"99 544 LINE",
"561 271 LINE"
);
}
);
width = 613;
}
);
},
{
glyphname = uni10CA4.ltr;
layers = (
{
layerId = "2D854B59-3A96-4021-89E9-F3E1522D96CD";
paths = (
{
closed = 1;
nodes = (
"12 2 LINE",
"313 802 LINE",
"404 802 LINE",
"711 2 LINE",
"616 2 LINE",
"425 516 LINE SMOOTH",
"406 566 OFFCURVE",
"374 658 OFFCURVE",
"364 696 QCURVE",
"360 696 LINE",
"350 658 OFFCURVE",
"318 566 OFFCURVE",
"300 518 QCURVE SMOOTH",
"107 2 LINE"
);
}
);
width = 724;
}
);
},
{
glyphname = uni10CA5.ltr;
layers = (
{
layerId = "2D854B59-3A96-4021-89E9-F3E1522D96CD";
paths = (
{
closed = 1;
nodes = (
"127 -4 LINE",
"127 804 LINE",
"217 804 LINE",
"217 -4 LINE"
);
}
);
width = 341;
}
);
},
{
glyphname = uni10CA6.ltr;
layers = (
{
layerId = "2D854B59-3A96-4021-89E9-F3E1522D96CD";
paths = (
{
closed = 1;
nodes = (
"121 0 LINE",
"121 802 LINE",
"211 802 LINE",
"211 464 LINE",
"485 827 LINE",
"557 781 LINE",
"211 332 LINE",
"211 0 LINE"
);
}
);
width = 567;
}
);
},
{
glyphname = uni10CA7.ltr;
layers = (
{
layerId = "2D854B59-3A96-4021-89E9-F3E1522D96CD";
paths = (
{
closed = 1;
nodes = (
"388 0 LINE",
"388 498 LINE",
"185 702 LINE",
"76 595 LINE",
"19 651 LINE",
"187 812 LINE",
"388 608 LINE",
"388 801 LINE",
"478 801 LINE",
"478 609 LINE",
"678 812 LINE",
"846 651 LINE",
"790 595 LINE",
"681 702 LINE",
"478 499 LINE",
"478 0 LINE"
);
}
);
width = 866;
}
);
},
{
glyphname = uni10CA8.ltr;
layers = (
{
layerId = "2D854B59-3A96-4021-89E9-F3E1522D96CD";
paths = (
{
closed = 1;
nodes = (
"4 -2 LINE",
"287 422 LINE",
"24 806 LINE",
"128 806 LINE",
"345 482 LINE",
"417 591 LINE",
"278 806 LINE",
"374 806 LINE",
"464 663 LINE",
"559 806 LINE",
"669 806 LINE",
"405 420 LINE",
"687 -2 LINE",
"583 -2 LINE",
"348 355 LINE",
"271 236 LINE",
"423 -2 LINE",
"327 -2 LINE",
"223 163 LINE",
"116 -2 LINE"
);
}
);
width = 691;
}
);
},
{
glyphname = uni10CA9.ltr;
layers = (
{
layerId = "2D854B59-3A96-4021-89E9-F3E1522D96CD";
paths = (
{
closed = 1;
nodes = (
"117 -28 LINE",
"53 34 LINE",
"317 418 LINE",
"54 786 LINE",
"115 838 LINE",
"401 761 LINE",
"380 692 LINE",
"177 749 LINE",
"368 474 LINE",
"583 806 LINE",
"690 806 LINE",
"426 413 LINE",
"720 -1 LINE",
"620 -1 LINE",
"372 353 LINE",
"176 60 LINE",
"379 116 LINE",
"404 46 LINE"
);
}
);
width = 724;
}
);
},
{
glyphname = uni10CAA.ltr;
layers = (
{
layerId = "2D854B59-3A96-4021-89E9-F3E1522D96CD";
paths = (
{
closed = 1;
nodes = (
"135 -2 LINE",
"135 802 LINE",
"223 802 LINE",
"448 637 LINE",
"673 802 LINE",
"761 802 LINE",
"761 -2 LINE",
"673 -2 LINE",
"448 164 LINE",
"223 -2 LINE"
);
},
{
closed = 1;
nodes = (
"225 99 LINE",
"448 258 LINE",
"671 99 LINE",
"671 701 LINE",
"448 542 LINE",
"225 701 LINE"
);
}
);
width = 885;
}
);
},
{
glyphname = uni10CAB.ltr;
layers = (
{
layerId = "2D854B59-3A96-4021-89E9-F3E1522D96CD";
paths = (
{
closed = 1;
nodes = (
"116 0 LINE",
"116 799 LINE",
"198 799 LINE",
"475 464 LINE",
"749 799 LINE",
"831 799 LINE",
"831 0 LINE",
"749 0 LINE",
"475 337 LINE",
"198 0 LINE"
);
},
{
closed = 1;
nodes = (
"205 137 LINE",
"209 137 LINE",
"425 399 LINE",
"209 663 LINE",
"205 663 LINE"
);
},
{
closed = 1;
nodes = (
"738 145 LINE",
"742 145 LINE",
"742 655 LINE",
"738 655 LINE",
"527 399 LINE"
);
}
);
width = 953;
}
);
},
{
glyphname = uni10CAC.ltr;
layers = (
{
layerId = "2D854B59-3A96-4021-89E9-F3E1522D96CD";
paths = (
{
closed = 1;
nodes = (
"106 -15 LINE",
"41 42 LINE",
"166 164 LINE",
"128 217 OFFCURVE",
"86 333 OFFCURVE",
"86 401 QCURVE SMOOTH",
"86 469 OFFCURVE",
"128 586 OFFCURVE",
"166 638 QCURVE",
"42 759 LINE",
"106 817 LINE",
"218 699 LINE",
"244 725 OFFCURVE",
"304 776 OFFCURVE",
"338 802 QCURVE",
"432 802 LINE",
"466 777 OFFCURVE",
"526 726 OFFCURVE",
"551 699 QCURVE",
"663 817 LINE",
"728 759 LINE",
"604 639 LINE",
"642 587 OFFCURVE",
"684 469 OFFCURVE",
"684 401 QCURVE SMOOTH",
"684 333 OFFCURVE",
"642 216 OFFCURVE",
"604 164 QCURVE",
"728 42 LINE",
"663 -15 LINE",
"551 103 LINE",
"526 77 OFFCURVE",
"465 26 OFFCURVE",
"431 0 QCURVE",
"338 0 LINE",
"304 26 OFFCURVE",
"244 77 OFFCURVE",
"218 103 QCURVE"
);
},
{
closed = 1;
nodes = (
"387 68 LINE",
"456 125 OFFCURVE",
"546 226 OFFCURVE",
"591 334 OFFCURVE",
"591 401 QCURVE SMOOTH",
"591 468 OFFCURVE",
"546 576 OFFCURVE",
"456 678 OFFCURVE",
"387 735 QCURVE",
"383 735 LINE",
"314 678 OFFCURVE",
"224 576 OFFCURVE",
"179 468 OFFCURVE",
"179 401 QCURVE SMOOTH",
"179 334 OFFCURVE",
"224 226 OFFCURVE",
"314 125 OFFCURVE",
"383 68 QCURVE"
);
}
);
width = 769;
}
);
},
{
glyphname = uni10CAD.ltr;
layers = (
{
layerId = "2D854B59-3A96-4021-89E9-F3E1522D96CD";
paths = (
{
closed = 1;
nodes = (
"131 -2 LINE",
"131 593 LINE",
"221 593 LINE",
"568 345 LINE",
"568 804 LINE",
"658 804 LINE",
"658 247 LINE",
"568 247 LINE",
"221 490 LINE",
"221 -2 LINE"
);
}
);
width = 788;
}
);
},
{
glyphname = uni10CAE.ltr;
layers = (
{
layerId = "2D854B59-3A96-4021-89E9-F3E1522D96CD";
paths = (
{
closed = 1;
nodes = (
"138 -2 LINE",
"138 804 LINE",
"226 804 LINE",
"451 639 LINE",
"676 804 LINE",
"764 804 LINE",
"764 -2 LINE",
"674 -2 LINE",
"674 702 LINE",
"451 543 LINE",
"228 702 LINE",
"228 -2 LINE"
);
}
);
width = 888;
}
);
},
{
glyphname = uni10CAF.ltr;
layers = (
{
layerId = "2D854B59-3A96-4021-89E9-F3E1522D96CD";
paths = (
{
closed = 1;
nodes = (
"115 0 LINE",
"115 802 LINE",
"202 802 LINE",
"609 559 LINE",
"609 802 LINE",
"699 802 LINE",
"699 0 LINE",
"612 0 LINE",
"205 244 LINE",
"205 0 LINE"
);
},
{
closed = 1;
nodes = (
"609 323 LINE",
"609 475 LINE",
"205 716 LINE",
"205 564 LINE"
);
},
{
closed = 1;
nodes = (
"609 88 LINE",
"609 239 LINE",
"205 480 LINE",
"205 329 LINE"
);
}
);
width = 820;
}
);
},
{
glyphname = uni10CB0.ltr;
layers = (
{
layerId = "2D854B59-3A96-4021-89E9-F3E1522D96CD";
paths = (
{
closed = 1;
nodes = (
"356 0 LINE",
"356 344 LINE",
"16 784 LINE",
"90 832 LINE",
"356 479 LINE",
"356 805 LINE",
"446 805 LINE",
"446 479 LINE",
"712 832 LINE",
"786 784 LINE",
"446 344 LINE",
"446 0 LINE"
);
}
);
width = 796;
}
);
},
{
glyphname = uni10CB1.ltr;
layers = (
{
layerId = "2D854B59-3A96-4021-89E9-F3E1522D96CD";
paths = (
{
closed = 1;
nodes = (
"389 -4 LINE",
"187 197 LINE",
"78 89 LINE",
"21 146 LINE",
"189 305 LINE",
"389 102 LINE",
"389 248 LINE",
"187 449 LINE",
"78 341 LINE",
"21 397 LINE",
"189 557 LINE",
"389 354 LINE",
"389 500 LINE",
"187 701 LINE",
"78 594 LINE",
"21 650 LINE",
"189 810 LINE",
"389 607 LINE",
"389 801 LINE",
"479 801 LINE",
"479 607 LINE",
"678 810 LINE",
"846 650 LINE",
"790 594 LINE",
"681 701 LINE",
"479 500 LINE",
"479 354 LINE",
"678 557 LINE",
"846 397 LINE",
"790 341 LINE",
"681 449 LINE",
"479 248 LINE",
"479 102 LINE",
"678 305 LINE",
"846 146 LINE",
"790 89 LINE",
"681 197 LINE",
"479 -4 LINE"
);
}
);
width = 866;
}
);
},
{
glyphname = uni10CB2.ltr;
layers = (
{
layerId = "2D854B59-3A96-4021-89E9-F3E1522D96CD";
paths = (
{
closed = 1;
nodes = (
"335 0 LINE",
"258 59 OFFCURVE",
"142 180 OFFCURVE",
"78 318 OFFCURVE",
"78 402 QCURVE SMOOTH",
"78 486 OFFCURVE",
"142 624 OFFCURVE",
"258 746 OFFCURVE",
"335 804 QCURVE",
"434 804 LINE",
"512 746 OFFCURVE",
"627 624 OFFCURVE",
"691 486 OFFCURVE",
"691 402 QCURVE SMOOTH",
"691 318 OFFCURVE",
"627 180 OFFCURVE",
"512 59 OFFCURVE",
"434 0 QCURVE"
);
},
{
closed = 1;
nodes = (
"342 709 LINE",
"285 659 OFFCURVE",
"211 564 OFFCURVE",
"174 463 OFFCURVE",
"174 402 QCURVE SMOOTH",
"174 341 OFFCURVE",
"211 240 OFFCURVE",
"285 146 OFFCURVE",
"342 95 QCURVE"
);
},
{
closed = 1;
nodes = (
"427 95 LINE",
"485 146 OFFCURVE",
"559 240 OFFCURVE",
"596 341 OFFCURVE",
"596 402 QCURVE SMOOTH",
"596 463 OFFCURVE",
"559 564 OFFCURVE",
"485 659 OFFCURVE",
"427 709 QCURVE"
);
}
);
width = 769;
}
);
},
{
glyphname = uni10CC0.ltr;
layers = (
{
layerId = "2D854B59-3A96-4021-89E9-F3E1522D96CD";
paths = (
{
closed = 1;
nodes = (
"95 0 LINE",
"95 600 LINE",
"214 600 LINE",
"412 409 LINE",
"412 300 LINE",
"182 289 LINE",
"182 0 LINE"
);
},
{
closed = 1;
nodes = (
"182 366 LINE",
"336 373 LINE",
"182 523 LINE"
);
}
);
width = 444;
}
);
},
{
glyphname = uni10CC1.ltr;
layers = (
{
layerId = "2D854B59-3A96-4021-89E9-F3E1522D96CD";
paths = (
{
closed = 1;
nodes = (
"95 0 LINE",
"95 600 LINE",
"180 600 LINE",
"391 414 LINE",
"391 334 LINE",
"182 164 LINE",
"182 0 LINE"
);
},
{
closed = 1;
nodes = (
"182 268 LINE",
"315 375 LINE",
"182 495 LINE"
);
}
);
width = 433;
}
);
},
{
glyphname = uni10CC2.ltr;
layers = (
{
layerId = "2D854B59-3A96-4021-89E9-F3E1522D96CD";
paths = (
{
closed = 1;
nodes = (
"10 0 LINE",
"217 313 LINE",
"25 600 LINE",
"119 600 LINE",
"268 371 LINE",
"417 600 LINE",
"516 600 LINE",
"321 311 LINE",
"528 0 LINE",
"434 0 LINE",
"271 253 LINE",
"111 0 LINE"
);
}
);
width = 538;
}
);
},
{
glyphname = uni10CC3.ltr;
layers = (
{
layerId = "2D854B59-3A96-4021-89E9-F3E1522D96CD";
paths = (
{
closed = 1;
nodes = (
"192 -1 LINE",
"40 65 LINE",
"68 131 LINE",
"170 83 LINE",
"206 130 LINE",
"179 168 OFFCURVE",
"150 251 OFFCURVE",
"150 300 QCURVE SMOOTH",
"150 349 OFFCURVE",
"179 433 OFFCURVE",
"206 470 QCURVE",
"170 515 LINE",
"68 467 LINE",
"40 535 LINE",
"192 600 LINE",
"254 527 LINE",
"273 546 OFFCURVE",
"316 582 OFFCURVE",
"339 600 QCURVE",
"408 600 LINE",
"432 581 OFFCURVE",
"476 545 OFFCURVE",
"495 525 QCURVE",
"558 600 LINE",
"711 535 LINE",
"681 467 LINE",
"581 515 LINE",
"543 467 LINE",
"569 430 OFFCURVE",
"596 347 OFFCURVE",
"596 300 QCURVE SMOOTH",
"596 252 OFFCURVE",
"569 169 OFFCURVE",
"543 132 QCURVE",
"581 83 LINE",
"681 131 LINE",
"711 65 LINE",
"558 -1 LINE",
"494 74 LINE",
"456 36 OFFCURVE",
"408 0 QCURVE",
"339 0 LINE",
"316 18 OFFCURVE",
"273 54 OFFCURVE",
"254 73 QCURVE"
);
},
{
closed = 1;
nodes = (
"374 64 LINE",
"422 105 OFFCURVE",
"484 176 OFFCURVE",
"513 252 OFFCURVE",
"513 300 QCURVE SMOOTH",
"513 347 OFFCURVE",
"484 423 OFFCURVE",
"423 495 OFFCURVE",
"374 536 QCURVE",
"372 536 LINE",
"301 475 OFFCURVE",
"233 370 OFFCURVE",
"233 300 QCURVE SMOOTH",
"233 230 OFFCURVE",
"300 125 OFFCURVE",
"372 64 QCURVE"
);
}
);
width = 751;
}
);
},
{
glyphname = uni10CC4.ltr;
layers = (
{
layerId = "2D854B59-3A96-4021-89E9-F3E1522D96CD";
paths = (
{
closed = 1;
nodes = (
"180 0 LINE",
"180 488 LINE",
"53 376 LINE",
"4 434 LINE",
"195 600 LINE",
"252 600 LINE",
"443 434 LINE",
"394 376 LINE",
"267 488 LINE",
"267 0 LINE"
);
}
);
width = 447;
}
);
},
{
glyphname = uni10CC5.ltr;
layers = (
{
layerId = "2D854B59-3A96-4021-89E9-F3E1522D96CD";
paths = (
{
closed = 1;
nodes = (
"195 0 LINE",
"4 166 LINE",
"53 224 LINE",
"180 112 LINE",
"180 488 LINE",
"53 376 LINE",
"4 434 LINE",
"195 600 LINE",
"252 600 LINE",
"443 434 LINE",
"394 376 LINE",
"267 488 LINE",
"267 112 LINE",
"394 224 LINE",
"443 166 LINE",
"252 0 LINE"
);
}
);
width = 447;
}
);
},
{
glyphname = uni10CC6.ltr;
layers = (
{
layerId = "2D854B59-3A96-4021-89E9-F3E1522D96CD";
paths = (
{
closed = 1;
nodes = (
"95 0 LINE",
"95 600 LINE",
"171 600 LINE",
"435 428 LINE",
"435 600 LINE",
"520 600 LINE",
"520 0 LINE",
"444 0 LINE",
"180 170 LINE",
"180 0 LINE"
);
},
{
closed = 1;
nodes = (
"435 91 LINE",
"435 343 LINE",
"180 510 LINE",
"180 255 LINE"
);
}
);
width = 615;
}
);
},
{
glyphname = uni10CC7.ltr;
layers = (
{
layerId = "2D854B59-3A96-4021-89E9-F3E1522D96CD";
paths = (
{
closed = 1;
nodes = (
"175 0 LINE",
"175 290 LINE",
"26 366 LINE",
"59 434 LINE",
"175 374 LINE",
"175 600 LINE",
"262 600 LINE",
"262 328 LINE",
"411 251 LINE",
"377 186 LINE",
"262 245 LINE",
"262 0 LINE"
);
}
);
width = 437;
}
);
},
{
glyphname = uni10CC8.ltr;
layers = (
{
layerId = "2D854B59-3A96-4021-89E9-F3E1522D96CD";
paths = (
{
closed = 1;
nodes = (
"10 0 LINE",
"206 296 LINE",
"42 343 LINE",
"57 407 LINE",
"177 372 LINE",
"25 600 LINE",
"119 600 LINE",
"268 371 LINE",
"417 600 LINE",
"516 600 LINE",
"332 328 LINE",
"505 278 LINE",
"482 217 LINE",
"360 252 LINE",
"528 0 LINE",
"434 0 LINE",
"271 253 LINE",
"111 0 LINE"
);
}
);
width = 538;
}
);
},
{
glyphname = uni10CC9.ltr;
layers = (
{
layerId = "2D854B59-3A96-4021-89E9-F3E1522D96CD";
paths = (
{
closed = 1;
nodes = (
"100 -27 LINE",
"57 33 LINE",
"125 95 LINE",
"74 139 OFFCURVE",
"28 237 OFFCURVE",
"28 300 QCURVE SMOOTH",
"28 362 OFFCURVE",
"73 459 OFFCURVE",
"122 502 QCURVE",
"57 561 LINE",
"100 621 LINE",
"182 546 LINE",
"236 581 OFFCURVE",
"316 618 QCURVE",
"361 551 LINE",
"326 535 OFFCURVE",
"268 504 OFFCURVE",
"244 490 QCURVE",
"321 420 LINE",
"273 365 LINE",
"184 446 LINE",
"147 414 OFFCURVE",
"117 344 OFFCURVE",
"117 300 QCURVE SMOOTH",
"117 254 OFFCURVE",
"147 181 OFFCURVE",
"184 148 QCURVE",
"273 229 LINE",
"321 174 LINE",
"245 104 LINE",
"291 76 OFFCURVE",
"357 47 QCURVE",
"320 -20 LINE",
"240 16 OFFCURVE",
"185 51 QCURVE"
);
}
);
width = 411;
}
);
},
{
glyphname = uni10CCA.ltr;
layers = (
{
layerId = "2D854B59-3A96-4021-89E9-F3E1522D96CD";
paths = (
{
closed = 1;
nodes = (
"34 47 LINE",
"64 61 OFFCURVE",
"115 86 OFFCURVE",
"137 99 QCURVE",
"88 142 OFFCURVE",
"45 239 OFFCURVE",
"45 300 QCURVE SMOOTH",
"45 359 OFFCURVE",
"88 455 OFFCURVE",
"134 497 QCURVE",
"112 510 OFFCURVE",
"61 537 OFFCURVE",
"30 551 QCURVE",
"75 618 LINE",
"150 584 OFFCURVE",
"204 549 QCURVE",
"258 584 OFFCURVE",
"333 618 QCURVE",
"378 551 LINE",
"347 537 OFFCURVE",
"296 510 OFFCURVE",
"274 497 QCURVE",
"321 455 OFFCURVE",
"363 359 OFFCURVE",
"363 300 QCURVE SMOOTH",
"363 239 OFFCURVE",
"320 142 OFFCURVE",
"271 99 QCURVE",
"293 86 OFFCURVE",
"344 61 OFFCURVE",
"374 47 QCURVE",
"337 -20 LINE",
"258 17 OFFCURVE",
"204 50 QCURVE",
"150 17 OFFCURVE",
"71 -20 QCURVE"
);
},
{
closed = 1;
nodes = (
"243 180 OFFCURVE",
"274 254 OFFCURVE",
"274 300 QCURVE SMOOTH",
"274 345 OFFCURVE",
"243 416 OFFCURVE",
"204 449 QCURVE",
"165 416 OFFCURVE",
"134 345 OFFCURVE",
"134 300 QCURVE SMOOTH",
"134 254 OFFCURVE",
"165 180 OFFCURVE",
"204 146 QCURVE"
);
}
);
width = 428;
}
);
},
{
glyphname = uni10CCB.ltr;
layers = (
{
layerId = "2D854B59-3A96-4021-89E9-F3E1522D96CD";
paths = (
{
closed = 1;
nodes = (
"158 -41 LINE",
"107 20 LINE",
"187 86 LINE",
"110 137 OFFCURVE",
"45 238 OFFCURVE",
"45 300 QCURVE SMOOTH",
"45 362 OFFCURVE",
"110 462 OFFCURVE",
"188 514 QCURVE",
"107 580 LINE",
"158 639 LINE",
"320 502 LINE",
"264 471 LINE",
"193 428 OFFCURVE",
"131 346 OFFCURVE",
"131 300 QCURVE SMOOTH",
"131 256 OFFCURVE",
"186 178 OFFCURVE",
"250 137 QCURVE",
"320 97 LINE"
);
}
);
width = 354;
}
);
},
{
glyphname = uni10CCC.ltr;
layers = (
{
layerId = "2D854B59-3A96-4021-89E9-F3E1522D96CD";
paths = (
{
closed = 1;
nodes = (
"244 0 LINE",
"159 64 OFFCURVE",
"55 206 OFFCURVE",
"55 300 QCURVE SMOOTH",
"55 394 OFFCURVE",
"159 536 OFFCURVE",
"244 600 QCURVE",
"313 600 LINE",
"398 536 OFFCURVE",
"501 394 OFFCURVE",
"501 300 QCURVE SMOOTH",
"501 206 OFFCURVE",
"398 64 OFFCURVE",
"313 0 QCURVE"
);
},
{
closed = 1;
nodes = (
"278 349 LINE",
"366 450 LINE",
"350 470 OFFCURVE",
"306 513 OFFCURVE",
"279 536 QCURVE",
"277 536 LINE",
"250 513 OFFCURVE",
"207 470 OFFCURVE",
"190 449 QCURVE"
);
},
{
closed = 1;
nodes = (
"402 207 LINE",
"420 249 OFFCURVE",
"420 300 QCURVE SMOOTH",
"420 350 OFFCURVE",
"402 392 QCURVE",
"322 298 LINE"
);
},
{
closed = 1;
nodes = (
"234 298 LINE",
"154 391 LINE",
"136 349 OFFCURVE",
"136 300 QCURVE SMOOTH",
"136 250 OFFCURVE",
"154 208 QCURVE"
);
},
{
closed = 1;
nodes = (
"279 64 LINE",
"332 108 OFFCURVE",
"364 147 QCURVE",
"278 247 LINE",
"192 147 LINE",
"224 108 OFFCURVE",
"277 64 QCURVE"
);
}
);
width = 556;
}
);
},
{
glyphname = uni10CCD.ltr;
layers = (
{
layerId = "2D854B59-3A96-4021-89E9-F3E1522D96CD";
paths = (
{
closed = 1;
nodes = (
"4 0 LINE",
"247 600 LINE",
"318 600 LINE",
"560 0 LINE",
"473 0 LINE",
"326 371 LINE SMOOTH",
"309 415 OFFCURVE",
"290 470 OFFCURVE",
"284 496 QCURVE",
"280 496 LINE",
"274 471 OFFCURVE",
"254 408 OFFCURVE",
"240 371 QCURVE SMOOTH",
"224 330 LINE",
"352 0 LINE",
"265 0 LINE",
"182 225 LINE",
"93 0 LINE"
);
}
);
width = 565;
}
);
},
{
glyphname = uni10CCE.ltr;
layers = (
{
layerId = "2D854B59-3A96-4021-89E9-F3E1522D96CD";
paths = (
{
closed = 1;
nodes = (
"180 0 LINE",
"180 185 LINE",
"29 273 LINE",
"58 336 LINE",
"180 269 LINE",
"180 372 LINE",
"29 459 LINE",
"58 522 LINE",
"180 454 LINE",
"180 600 LINE",
"267 600 LINE",
"267 409 LINE",
"418 324 LINE",
"383 262 LINE",
"267 328 LINE",
"267 223 LINE",
"418 138 LINE",
"383 76 LINE",
"267 141 LINE",
"267 0 LINE"
);
}
);
width = 450;
}
);
},
{
glyphname = uni10CCF.ltr;
layers = (
{
layerId = "2D854B59-3A96-4021-89E9-F3E1522D96CD";
paths = (
{
closed = 1;
nodes = (
"44 0 LINE",
"213 154 LINE",
"40 311 LINE",
"212 455 LINE",
"42 600 LINE",
"150 600 LINE",
"268 501 LINE",
"385 600 LINE",
"494 600 LINE",
"323 455 LINE",
"496 311 LINE",
"323 154 LINE",
"492 0 LINE",
"384 0 LINE",
"268 105 LINE",
"151 0 LINE"
);
},
{
closed = 1;
nodes = (
"268 205 LINE",
"381 310 LINE",
"268 407 LINE",
"153 310 LINE"
);
}
);
width = 536;
}
);
},
{
glyphname = uni10CD0.ltr;
layers = (
{
layerId = "2D854B59-3A96-4021-89E9-F3E1522D96CD";
paths = (
{
closed = 1;
nodes = (
"182 0 LINE",
"182 410 LINE",
"31 494 LINE",
"60 557 LINE",
"182 490 LINE",
"182 600 LINE",
"269 600 LINE",
"269 442 LINE",
"420 359 LINE",
"385 297 LINE",
"269 362 LINE",
"269 0 LINE"
);
}
);
width = 452;
}
);
},
{
glyphname = uni10CD1.ltr;
layers = (
{
layerId = "2D854B59-3A96-4021-89E9-F3E1522D96CD";
paths = (
{
closed = 1;
nodes = (
"148 0 LINE",
"148 558 LINE",
"0 640 LINE",
"29 703 LINE",
"413 492 LINE",
"378 430 LINE",
"235 509 LINE",
"235 0 LINE"
);
}
);
width = 421;
}
);
},
{
glyphname = uni10CD2.ltr;
layers = (
{
layerId = "2D854B59-3A96-4021-89E9-F3E1522D96CD";
paths = (
{
closed = 1;
nodes = (
"95 0 LINE",
"95 600 LINE",
"172 600 LINE",
"396 383 LINE",
"342 331 LINE",
"182 485 LINE",
"182 0 LINE"
);
}
);
width = 407;
}
);
},
{
glyphname = uni10CD3.ltr;
layers = (
{
layerId = "2D854B59-3A96-4021-89E9-F3E1522D96CD";
paths = (
{
closed = 1;
nodes = (
"208 0 LINE",
"33 304 LINE",
"208 600 LINE",
"284 600 LINE",
"460 304 LINE",
"284 0 LINE"
);
},
{
closed = 1;
nodes = (
"246 83 LINE",
"370 303 LINE",
"246 517 LINE",
"123 303 LINE"
);
}
);
width = 493;
}
);
},
{
glyphname = uni10CD4.ltr;
layers = (
{
layerId = "2D854B59-3A96-4021-89E9-F3E1522D96CD";
paths = (
{
closed = 1;
nodes = (
"206 0 LINE",
"15 166 LINE",
"64 224 LINE",
"191 112 LINE",
"191 600 LINE",
"263 600 LINE",
"454 434 LINE",
"405 376 LINE",
"278 488 LINE",
"278 0 LINE"
);
}
);
width = 469;
}
);
},
{
glyphname = uni10CD5.ltr;
layers = (
{
layerId = "2D854B59-3A96-4021-89E9-F3E1522D96CD";
paths = (
{
closed = 1;
nodes = (
"194 -30 LINE",
"28 46 LINE",
"59 113 LINE",
"154 67 LINE",
"294 301 LINE",
"159 526 LINE",
"63 479 LINE",
"32 547 LINE",
"199 623 LINE",
"342 375 LINE",
"487 624 LINE",
"652 547 LINE",
"621 479 LINE",
"526 526 LINE",
"390 301 LINE",
"530 67 LINE",
"626 113 LINE",
"657 46 LINE",
"491 -30 LINE",
"342 227 LINE"
);
}
);
width = 685;
}
);
},
{
glyphname = uni10CD6.ltr;
layers = (
{
layerId = "2D854B59-3A96-4021-89E9-F3E1522D96CD";
paths = (
{
closed = 1;
nodes = (
"5 0 LINE",
"271 600 LINE",
"342 600 LINE",
"607 0 LINE",
"522 0 LINE",
"357 371 LINE SMOOTH",
"338 414 OFFCURVE",
"316 474 OFFCURVE",
"308 498 QCURVE",
"304 498 LINE",
"298 479 OFFCURVE",
"279 428 OFFCURVE",
"268 399 QCURVE",
"439 0 LINE",
"355 0 LINE",
"227 305 LINE",
"186 212 LINE",
"273 0 LINE",
"189 0 LINE",
"144 117 LINE",
"93 0 LINE"
);
}
);
width = 612;
}
);
},
{
glyphname = uni10CD7.ltr;
layers = (
{
layerId = "2D854B59-3A96-4021-89E9-F3E1522D96CD";
paths = (
{
closed = 1;
nodes = (
"244 0 LINE",
"159 64 OFFCURVE",
"55 206 OFFCURVE",
"55 300 QCURVE SMOOTH",
"55 394 OFFCURVE",
"159 536 OFFCURVE",
"244 600 QCURVE",
"313 600 LINE",
"398 536 OFFCURVE",
"501 394 OFFCURVE",
"501 300 QCURVE SMOOTH",
"501 206 OFFCURVE",
"398 64 OFFCURVE",
"313 0 QCURVE"
);
},
{
closed = 1;
nodes = (
"401 208 LINE",
"418 251 OFFCURVE",
"418 300 QCURVE SMOOTH",
"418 347 OFFCURVE",
"389 423 OFFCURVE",
"328 495 OFFCURVE",
"279 536 QCURVE",
"277 536 LINE",
"222 488 OFFCURVE",
"190 448 QCURVE"
);
},
{
closed = 1;
nodes = (
"279 64 LINE",
"305 86 OFFCURVE",
"347 127 OFFCURVE",
"363 147 QCURVE",
"155 389 LINE",
"138 347 OFFCURVE",
"138 300 QCURVE SMOOTH",
"138 230 OFFCURVE",
"205 125 OFFCURVE",
"277 64 QCURVE"
);
}
);
width = 556;
}
);
},
{
glyphname = uni10CD8.ltr;
layers = (
{
layerId = "2D854B59-3A96-4021-89E9-F3E1522D96CD";
paths = (
{
closed = 1;
nodes = (
"95 0 LINE",
"95 600 LINE",
"178 600 LINE",
"433 479 LINE",
"433 380 LINE",
"291 303 LINE",
"433 231 LINE",
"433 132 LINE",
"174 0 LINE"
);
},
{
closed = 1;
nodes = (
"175 320 LINE",
"360 426 LINE",
"175 514 LINE"
);
},
{
closed = 1;
nodes = (
"175 93 LINE",
"360 185 LINE",
"175 284 LINE"
);
}
);
width = 481;
}
);
},
{
glyphname = uni10CD9.ltr;
layers = (
{
layerId = "2D854B59-3A96-4021-89E9-F3E1522D96CD";
paths = (
{
closed = 1;
nodes = (
"347 -20 LINE",
"242 28 OFFCURVE",
"113 122 OFFCURVE",
"55 230 OFFCURVE",
"55 300 QCURVE SMOOTH",
"55 369 OFFCURVE",
"113 477 OFFCURVE",
"240 570 OFFCURVE",
"343 618 QCURVE",
"388 551 LINE",
"293 506 OFFCURVE",
"186 431 OFFCURVE",
"144 352 OFFCURVE",
"144 300 QCURVE SMOOTH",
"144 246 OFFCURVE",
"186 164 OFFCURVE",
"291 89 OFFCURVE",
"384 47 QCURVE"
);
}
);
width = 420;
}
);
},
{
glyphname = uni10CDA.ltr;
layers = (
{
layerId = "2D854B59-3A96-4021-89E9-F3E1522D96CD";
paths = (
{
closed = 1;
nodes = (
"310 0 LINE",
"218 48 OFFCURVE",
"106 138 OFFCURVE",
"55 239 OFFCURVE",
"55 300 QCURVE SMOOTH",
"55 359 OFFCURVE",
"107 459 OFFCURVE",
"220 552 OFFCURVE",
"310 600 QCURVE",
"395 600 LINE",
"395 0 LINE"
);
},
{
closed = 1;
nodes = (
"310 512 LINE",
"244 474 OFFCURVE",
"171 407 OFFCURVE",
"142 340 OFFCURVE",
"142 300 QCURVE SMOOTH",
"142 235 OFFCURVE",
"218 137 OFFCURVE",
"310 87 QCURVE"
);
}
);
width = 490;
}
);
},
{
glyphname = uni10CDB.ltr;
layers = (
{
layerId = "2D854B59-3A96-4021-89E9-F3E1522D96CD";
paths = (
{
closed = 1;
nodes = (
"262 -22 LINE",
"159 55 OFFCURVE",
"55 200 OFFCURVE",
"55 295 QCURVE SMOOTH",
"55 355 OFFCURVE",
"95 459 OFFCURVE",
"186 564 OFFCURVE",
"262 624 QCURVE",
"441 455 LINE",
"383 397 LINE",
"261 514 LINE",
"216 475 OFFCURVE",
"164 406 OFFCURVE",
"142 336 OFFCURVE",
"142 295 QCURVE SMOOTH",
"142 234 OFFCURVE",
"193 134 OFFCURVE",
"254 81 QCURVE",
"383 204 LINE",
"441 146 LINE"
);
}
);
width = 473;
}
);
},
{
glyphname = uni10CDC.ltr;
layers = (
{
layerId = "2D854B59-3A96-4021-89E9-F3E1522D96CD";
paths = (
{
closed = 1;
nodes = (
"266 -21 LINE",
"159 55 OFFCURVE",
"55 199 OFFCURVE",
"55 293 QCURVE SMOOTH",
"55 353 OFFCURVE",
"96 456 OFFCURVE",
"188 559 OFFCURVE",
"266 618 QCURVE",
"320 554 LINE",
"251 502 OFFCURVE",
"173 419 OFFCURVE",
"141 340 OFFCURVE",
"141 293 QCURVE SMOOTH",
"141 232 OFFCURVE",
"193 133 OFFCURVE",
"257 80 QCURVE",
"366 187 LINE",
"268 290 LINE",
"325 348 LINE",
"479 182 LINE"
);
}
);
width = 507;
}
);
},
{
glyphname = uni10CDD.ltr;
layers = (
{
layerId = "2D854B59-3A96-4021-89E9-F3E1522D96CD";
paths = (
{
closed = 1;
nodes = (
"107 -18 LINE",
"50 41 LINE",
"230 211 LINE",
"33 394 LINE",
"266 618 LINE",
"323 559 LINE",
"139 390 LINE",
"337 207 LINE"
);
}
);
width = 370;
}
);
},
{
glyphname = uni10CDE.ltr;
layers = (
{
layerId = "2D854B59-3A96-4021-89E9-F3E1522D96CD";
paths = (
{
closed = 1;
nodes = (
"18 0 LINE",
"223 307 LINE",
"25 600 LINE",
"122 600 LINE",
"310 308 LINE",
"310 600 LINE",
"397 600 LINE",
"397 0 LINE",
"310 0 LINE",
"310 300 LINE",
"120 0 LINE"
);
}
);
width = 492;
}
);
},
{
glyphname = uni10CDF.ltr;
layers = (
{
layerId = "2D854B59-3A96-4021-89E9-F3E1522D96CD";
paths = (
{
closed = 1;
nodes = (
"300 -21 LINE",
"257 9 OFFCURVE",
"190 67 OFFCURVE",
"165 96 QCURVE",
"96 38 LINE",
"51 88 LINE",
"125 151 LINE",
"89 216 OFFCURVE",
"89 293 QCURVE SMOOTH",
"89 334 OFFCURVE",
"107 406 OFFCURVE",
"127 441 QCURVE",
"54 503 LINE",
"99 552 LINE",
"166 496 LINE",
"190 525 OFFCURVE",
"257 585 OFFCURVE",
"300 618 QCURVE",
"354 554 LINE",
"271 492 OFFCURVE",
"230 442 QCURVE",
"273 406 LINE",
"227 356 LINE",
"193 385 LINE",
"183 363 OFFCURVE",
"175 318 OFFCURVE",
"175 293 QCURVE SMOOTH",
"175 247 OFFCURVE",
"190 206 QCURVE",
"226 236 LINE",
"272 187 LINE",
"224 147 LINE",
"249 114 OFFCURVE",
"291 80 QCURVE",
"400 187 LINE",
"302 290 LINE",
"359 348 LINE",
"513 182 LINE"
);
}
);
width = 541;
}
);
},
{
glyphname = uni10CE0.ltr;
layers = (
{
layerId = "2D854B59-3A96-4021-89E9-F3E1522D96CD";
paths = (
{
closed = 1;
nodes = (
"361 -9 LINE",
"180 144 LINE",
"180 0 LINE",
"95 0 LINE",
"95 600 LINE",
"170 600 LINE",
"411 401 LINE",
"361 348 LINE",
"180 501 LINE",
"180 411 LINE",
"411 223 LINE",
"361 170 LINE",
"180 322 LINE",
"180 232 LINE",
"411 45 LINE"
);
}
);
width = 453;
}
);
},
{
glyphname = uni10CE1.ltr;
layers = (
{
layerId = "2D854B59-3A96-4021-89E9-F3E1522D96CD";
paths = (
{
closed = 1;
nodes = (
"170 -17 LINE",
"111 36 LINE",
"207 127 LINE",
"190 152 OFFCURVE",
"165 203 OFFCURVE",
"158 231 QCURVE",
"52 174 LINE",
"14 241 LINE",
"150 311 LINE",
"152 356 OFFCURVE",
"181 432 OFFCURVE",
"206 466 QCURVE",
"82 406 LINE",
"47 475 LINE",
"337 600 LINE",
"409 600 LINE",
"699 475 LINE",
"664 406 LINE",
"541 465 LINE",
"566 432 OFFCURVE",
"595 356 OFFCURVE",
"596 311 QCURVE",
"732 241 LINE",
"694 174 LINE",
"588 231 LINE",
"575 177 OFFCURVE",
"539 127 QCURVE",
"635 36 LINE",
"576 -17 LINE",
"491 71 LINE",
"473 52 OFFCURVE",
"431 17 OFFCURVE",
"408 0 QCURVE",
"339 0 LINE",
"316 17 OFFCURVE",
"274 53 OFFCURVE",
"255 71 QCURVE"
);
},
{
closed = 1;
nodes = (
"374 64 LINE",
"422 105 OFFCURVE",
"484 176 OFFCURVE",
"513 252 OFFCURVE",
"513 300 QCURVE SMOOTH",
"513 372 OFFCURVE",
"447 481 OFFCURVE",
"374 536 QCURVE",
"372 536 LINE",
"301 481 OFFCURVE",
"233 372 OFFCURVE",
"233 300 QCURVE SMOOTH",
"233 230 OFFCURVE",
"300 125 OFFCURVE",
"372 64 QCURVE"
);
}
);
width = 746;
}
);
},
{
glyphname = uni10CE2.ltr;
layers = (
{
layerId = "2D854B59-3A96-4021-89E9-F3E1522D96CD";
paths = (
{
closed = 1;
nodes = (
"95 0 LINE",
"95 600 LINE",
"182 600 LINE",
"182 434 LINE",
"445 264 LINE",
"445 600 LINE",
"532 600 LINE",
"532 0 LINE",
"445 0 LINE",
"445 175 LINE",
"182 345 LINE",
"182 0 LINE"
);
}
);
width = 627;
}
);
},
{
glyphname = uni10CE3.ltr;
layers = (
{
layerId = "2D854B59-3A96-4021-89E9-F3E1522D96CD";
paths = (
{
closed = 1;
nodes = (
"375 177 LINE",
"32 372 LINE",
"72 440 LINE",
"414 245 LINE"
);
}
);
width = 441;
}
);
},
{
glyphname = uni10CE4.ltr;
layers = (
{
layerId = "2D854B59-3A96-4021-89E9-F3E1522D96CD";
paths = (
{
closed = 1;
nodes = (
"5 0 LINE",
"248 600 LINE",
"319 600 LINE",
"561 0 LINE",
"474 0 LINE",
"327 371 LINE SMOOTH",
"310 415 OFFCURVE",
"291 470 OFFCURVE",
"285 496 QCURVE",
"281 496 LINE",
"275 471 OFFCURVE",
"255 408 OFFCURVE",
"241 371 QCURVE SMOOTH",
"94 0 LINE"
);
}
);
width = 566;
}
);
},
{
glyphname = uni10CE5.ltr;
layers = (
{
layerId = "2D854B59-3A96-4021-89E9-F3E1522D96CD";
paths = (
{
closed = 1;
nodes = (
"95 0 LINE",
"95 600 LINE",
"182 600 LINE",
"182 0 LINE"
);
}
);
width = 277;
}
);
},
{
glyphname = uni10CE6.ltr;
layers = (
{
layerId = "2D854B59-3A96-4021-89E9-F3E1522D96CD";
paths = (
{
closed = 1;
nodes = (
"95 0 LINE",
"95 600 LINE",
"182 600 LINE",
"182 371 LINE",
"384 624 LINE",
"449 567 LINE",
"182 241 LINE",
"182 0 LINE"
);
}
);
width = 467;
}
);
},
{
glyphname = uni10CE7.ltr;
layers = (
{
layerId = "2D854B59-3A96-4021-89E9-F3E1522D96CD";
paths = (
{
closed = 1;
nodes = (
"288 0 LINE",
"288 351 LINE",
"143 508 LINE",
"66 430 LINE",
"14 482 LINE",
"146 611 LINE",
"288 456 LINE",
"288 600 LINE",
"373 600 LINE",
"373 455 LINE",
"514 611 LINE",
"647 482 LINE",
"594 430 LINE",
"518 508 LINE",
"373 350 LINE",
"373 0 LINE"
);
}
);
width = 661;
}
);
},
{
glyphname = uni10CE8.ltr;
layers = (
{
layerId = "2D854B59-3A96-4021-89E9-F3E1522D96CD";
paths = (
{
closed = 1;
nodes = (
"10 0 LINE",
"217 313 LINE",
"25 600 LINE",
"119 600 LINE",
"268 371 LINE",
"313 440 LINE",
"211 600 LINE",
"299 600 LINE",
"356 507 LINE",
"417 600 LINE",
"516 600 LINE",
"321 311 LINE",
"528 0 LINE",
"434 0 LINE",
"271 253 LINE",
"223 177 LINE",
"335 0 LINE",
"248 0 LINE",
"180 109 LINE",
"111 0 LINE"
);
}
);
width = 538;
}
);
},
{
glyphname = uni10CE9.ltr;
layers = (
{
layerId = "2D854B59-3A96-4021-89E9-F3E1522D96CD";
paths = (
{
closed = 1;
nodes = (
"73 -24 LINE",
"4 22 LINE",
"196 313 LINE",
"15 584 LINE",
"76 625 LINE",
"274 567 LINE",
"254 499 LINE",
"137 535 LINE",
"247 371 LINE",
"396 600 LINE",
"495 600 LINE",
"300 311 LINE",
"507 0 LINE",
"413 0 LINE",
"250 253 LINE",
"129 63 LINE",
"254 102 LINE",
"276 34 LINE"
);
}
);
width = 517;
}
);
},
{
glyphname = uni10CEA.ltr;
layers = (
{
layerId = "2D854B59-3A96-4021-89E9-F3E1522D96CD";
paths = (
{
closed = 1;
nodes = (
"95 0 LINE",
"95 600 LINE",
"174 600 LINE",
"331 486 LINE",
"490 600 LINE",
"567 600 LINE",
"567 0 LINE",
"490 0 LINE",
"331 114 LINE",
"174 0 LINE"
);
},
{
closed = 1;
nodes = (
"180 100 LINE",
"331 206 LINE",
"482 100 LINE",
"482 499 LINE",
"331 394 LINE",
"180 499 LINE"
);
}
);
width = 662;
}
);
},
{
glyphname = uni10CEB.ltr;
layers = (
{
layerId = "2D854B59-3A96-4021-89E9-F3E1522D96CD";
paths = (
{
closed = 1;
nodes = (
"95 0 LINE",
"95 600 LINE",
"168 600 LINE",
"354 355 LINE",
"537 600 LINE",
"615 600 LINE",
"615 0 LINE",
"537 0 LINE",
"354 243 LINE",
"168 0 LINE"
);
},
{
closed = 1;
nodes = (
"170 126 LINE",
"173 126 LINE",
"307 300 LINE",
"173 472 LINE",
"170 472 LINE"
);
},
{
closed = 1;
nodes = (
"532 131 LINE",
"535 131 LINE",
"535 467 LINE",
"532 467 LINE",
"401 300 LINE"
);
}
);
width = 710;
}
);
},
{
glyphname = uni10CEC.ltr;
layers = (
{
layerId = "2D854B59-3A96-4021-89E9-F3E1522D96CD";
paths = (
{
closed = 1;
nodes = (
"97 -15 LINE",
"38 38 LINE",
"128 129 LINE",
"102 167 OFFCURVE",
"72 251 OFFCURVE",
"72 300 QCURVE SMOOTH",
"72 349 OFFCURVE",
"102 433 OFFCURVE",
"128 471 QCURVE",
"38 560 LINE",
"97 613 LINE",
"177 528 LINE",
"215 564 OFFCURVE",
"261 600 QCURVE",
"330 600 LINE",
"378 564 OFFCURVE",
"413 528 QCURVE",
"492 613 LINE",
"551 560 LINE",
"462 471 LINE",
"489 434 OFFCURVE",
"518 349 OFFCURVE",
"518 300 QCURVE SMOOTH",
"518 251 OFFCURVE",
"489 167 OFFCURVE",
"462 129 QCURVE",
"551 38 LINE",
"492 -15 LINE",
"413 71 LINE",
"377 35 OFFCURVE",
"330 0 QCURVE",
"261 0 LINE",
"238 17 OFFCURVE",
"196 53 OFFCURVE",
"177 71 QCURVE"
);
},
{
closed = 1;
nodes = (
"296 64 LINE",
"344 105 OFFCURVE",
"406 176 OFFCURVE",
"435 252 OFFCURVE",
"435 300 QCURVE SMOOTH",
"435 347 OFFCURVE",
"406 423 OFFCURVE",
"345 495 OFFCURVE",
"296 536 QCURVE",
"294 536 LINE",
"223 475 OFFCURVE",
"155 370 OFFCURVE",
"155 300 QCURVE SMOOTH",
"155 230 OFFCURVE",
"222 125 OFFCURVE",
"294 64 QCURVE"
);
}
);
width = 589;
}
);
},
{
glyphname = uni10CED.ltr;
layers = (
{
layerId = "2D854B59-3A96-4021-89E9-F3E1522D96CD";
paths = (
{
closed = 1;
nodes = (
"86 0 LINE",
"86 457 LINE",
"171 457 LINE",
"404 272 LINE",
"404 600 LINE",
"491 600 LINE",
"491 169 LINE",
"407 169 LINE",
"173 354 LINE",
"173 0 LINE"
);
}
);
width = 577;
}
);
},
{
glyphname = uni10CEE.ltr;
layers = (
{
layerId = "2D854B59-3A96-4021-89E9-F3E1522D96CD";
paths = (
{
closed = 1;
nodes = (
"95 0 LINE",
"95 600 LINE",
"174 600 LINE",
"331 486 LINE",
"490 600 LINE",
"567 600 LINE",
"567 0 LINE",
"482 0 LINE",
"482 499 LINE",
"331 394 LINE",
"180 499 LINE",
"180 0 LINE"
);
}
);
width = 662;
}
);
},
{
glyphname = uni10CEF.ltr;
layers = (
{
layerId = "2D854B59-3A96-4021-89E9-F3E1522D96CD";
paths = (
{
closed = 1;
nodes = (
"95 0 LINE",
"95 600 LINE",
"180 600 LINE",
"435 427 LINE",
"435 600 LINE",
"520 600 LINE",
"520 0 LINE",
"435 0 LINE",
"180 173 LINE",
"180 0 LINE"
);
},
{
closed = 1;
nodes = (
"435 254 LINE",
"435 346 LINE",
"180 519 LINE",
"180 427 LINE"
);
},
{
closed = 1;
nodes = (
"435 81 LINE",
"435 173 LINE",
"180 346 LINE",
"180 254 LINE"
);
}
);
width = 615;
}
);
},
{
glyphname = uni10CF0.ltr;
layers = (
{
layerId = "2D854B59-3A96-4021-89E9-F3E1522D96CD";
paths = (
{
closed = 1;
nodes = (
"268 0 LINE",
"268 261 LINE",
"12 570 LINE",
"80 617 LINE",
"268 386 LINE",
"268 600 LINE",
"355 600 LINE",
"355 386 LINE",
"541 617 LINE",
"610 570 LINE",
"355 261 LINE",
"355 0 LINE"
);
}
);
width = 622;
}
);
},
{
glyphname = uni10CF1.ltr;
layers = (
{
layerId = "2D854B59-3A96-4021-89E9-F3E1522D96CD";
paths = (
{
closed = 1;
nodes = (
"311 0 LINE",
"166 152 LINE",
"77 85 LINE",
"30 140 LINE",
"169 246 LINE",
"311 98 LINE",
"311 192 LINE",
"166 336 LINE",
"77 268 LINE",
"30 324 LINE",
"169 429 LINE",
"311 285 LINE",
"311 375 LINE",
"166 519 LINE",
"77 452 LINE",
"30 507 LINE",
"169 613 LINE",
"311 469 LINE",
"311 600 LINE",
"396 600 LINE",
"396 469 LINE",
"537 613 LINE",
"676 507 LINE",
"629 452 LINE",
"540 519 LINE",
"396 375 LINE",
"396 285 LINE",
"537 429 LINE",
"676 324 LINE",
"629 268 LINE",
"540 336 LINE",
"396 192 LINE",
"396 98 LINE",
"537 246 LINE",
"676 140 LINE",
"629 85 LINE",
"540 152 LINE",
"396 0 LINE"
);
}
);
width = 706;
}
);
},
{
glyphname = uni10CF2.ltr;
layers = (
{
layerId = "2D854B59-3A96-4021-89E9-F3E1522D96CD";
paths = (
{
closed = 1;
nodes = (
"244 0 LINE",
"159 64 OFFCURVE",
"55 206 OFFCURVE",
"55 300 QCURVE SMOOTH",
"55 394 OFFCURVE",
"159 536 OFFCURVE",
"244 600 QCURVE",
"313 600 LINE",
"398 536 OFFCURVE",
"501 394 OFFCURVE",
"501 300 QCURVE SMOOTH",
"501 206 OFFCURVE",
"398 64 OFFCURVE",
"313 0 QCURVE"
);
},
{
closed = 1;
nodes = (
"316 97 LINE",
"369 146 OFFCURVE",
"418 239 OFFCURVE",
"418 300 QCURVE SMOOTH",
"418 360 OFFCURVE",
"369 454 OFFCURVE",
"316 503 QCURVE"
);
},
{
closed = 1;
nodes = (
"239 502 LINE",
"187 453 OFFCURVE",
"138 360 OFFCURVE",
"138 300 QCURVE SMOOTH",
"138 239 OFFCURVE",
"187 147 OFFCURVE",
"239 98 QCURVE"
);
}
